<?xml version="1.0" encoding="UTF-8" standalone="no"?>
<!-- Created with Inkscape (http://www.inkscape.org/) -->
<svg
   xmlns:dc="http://purl.org/dc/elements/1.1/"
   xmlns:cc="http://creativecommons.org/ns#"
   xmlns:rdf="http://www.w3.org/1999/02/22-rdf-syntax-ns#"
   xmlns:svg="http://www.w3.org/2000/svg"
   xmlns="http://www.w3.org/2000/svg"
   xmlns:sodipodi="http://sodipodi.sourceforge.net/DTD/sodipodi-0.dtd"
   xmlns:inkscape="http://www.inkscape.org/namespaces/inkscape"
   id="svg2"
   sodipodi:version="0.32"
   inkscape:version="0.46"
   width="618.5473"
   height="736.85632"
   xml:space="preserve"
   sodipodi:docname="Université de Picardie.svg"
   version="1.0"
   inkscape:output_extension="org.inkscape.output.svg.inkscape"><metadata
     id="metadata7"><rdf:RDF><cc:Work
         rdf:about=""><dc:format>image/svg+xml</dc:format><dc:type
           rdf:resource="http://purl.org/dc/dcmitype/StillImage" /></cc:Work></rdf:RDF></metadata><defs
     id="defs5"><inkscape:perspective
       sodipodi:type="inkscape:persp3d"
       inkscape:vp_x="0 : 526.18109 : 1"
       inkscape:vp_y="0 : 1000 : 0"
       inkscape:vp_z="744.09448 : 526.18109 : 1"
       inkscape:persp3d-origin="372.04724 : 350.78739 : 1"
       id="perspective9" /></defs><sodipodi:namedview
     inkscape:window-height="726"
     inkscape:window-width="1017"
     inkscape:pageshadow="2"
     inkscape:pageopacity="0.0"
     guidetolerance="10.0"
     gridtolerance="10.0"
     objecttolerance="10.0"
     borderopacity="1.0"
     bordercolor="#666666"
     pagecolor="#ffffff"
     id="base"
     showgrid="false"
     inkscape:zoom="0.67041561"
     inkscape:cx="309.27365"
     inkscape:cy="368.42815"
     inkscape:window-x="0"
     inkscape:window-y="25"
     inkscape:current-layer="g11" /><g
     id="g11"
     inkscape:groupmode="layer"
     inkscape:label="Picardie"
     transform="matrix(1.25,0,0,-1.25,-0.168945,737.94375)"><g
       id="g13"
       transform="scale(0.1,0.1)"><path
         d="M 4949.73,4957.01 L 1.35156,4957.01 L 1.35156,8.69922 L 4134.18,8.69922 C 4134.98,10.4297 4135.7,11.9727 4136.56,13.75 C 4145.23,32.1289 4155.08,52.9688 4161.09,68.125 C 4169.22,88.457 4191,149.336 4205.41,189.602 C 4205.41,189.602 4219.1,227.629 4219.14,227.656 C 4230.8,258.73 4252.52,314.609 4267.03,339.641 C 4276.33,355.586 4288.98,385.215 4299.12,409.055 C 4305.14,423.113 4310.33,435.293 4314.39,443.762 C 4318.75,452.715 4321.13,462.043 4323.63,471.875 C 4326.84,484.309 4330.14,497.234 4337.52,510.84 C 4356.02,545.188 4366.04,565.73 4367.29,571.57 C 4369.65,586.809 4386.04,621.816 4396.09,635.77 C 4404.94,648.113 4422.71,681.418 4424.41,688.75 C 4424.79,690.891 4425.04,693.398 4425.33,696.055 C 4426.6,707.129 4428.18,720.906 4436.5,731.711 C 4439.65,735.73 4442.71,739.016 4445.16,741.641 C 4446.78,743.367 4449.02,745.781 4449.32,746.238 C 4450.1,748.066 4451.33,750.82 4453.03,754.57 C 4456.84,762.988 4464.77,780.566 4466.46,787.578 C 4467.17,790.547 4467.91,795.508 4468.67,800.77 C 4471.39,819.355 4473.81,833.293 4480,842.883 L 4484.2,849.512 C 4493.3,863.762 4512.23,893.535 4520.35,908.137 C 4531.91,929.363 4550.25,969.031 4551.99,976.562 C 4552.4,978.379 4562.38,1022.34 4578.2,1036.19 C 4580.8,1038.48 4583.63,1040.82 4586.7,1043.25 C 4590.12,1046.02 4596.25,1050.97 4598.16,1053.33 C 4600.98,1062.75 4607.23,1078.77 4611.17,1088.21 C 4620.59,1110.36 4623.48,1122.14 4624.26,1128.27 C 4626.45,1144.76 4635.82,1175.3 4642.85,1192.27 C 4647.54,1203.91 4657.56,1224.72 4666.37,1243.11 C 4666.37,1243.11 4675.12,1261.46 4675.08,1261.42 C 4682.95,1278.25 4701.43,1330.18 4706.5,1349.61 L 4710.49,1365.25 C 4718.22,1395.84 4724.04,1418.27 4728.95,1428.18 C 4732.95,1436.19 4741.78,1469.32 4743.44,1482.51 L 4744.8,1493.37 C 4746.68,1507.9 4749.49,1529.88 4749.49,1544.36 C 4749.49,1576.93 4746.46,1646.09 4740.68,1662.25 C 4737.4,1671.35 4731.27,1682.23 4725.88,1691.85 C 4717.71,1706.25 4711.31,1717.64 4710.49,1728.3 C 4709.96,1732.56 4703.4,1745.59 4700.31,1751.86 C 4697.01,1758.35 4694.2,1763.98 4692.54,1768.65 C 4691.13,1772.63 4690.21,1776.27 4689.36,1779.44 C 4687.87,1785.23 4686.84,1789.39 4683.05,1795.17 C 4679.38,1800.74 4670.43,1815.45 4660.02,1832.53 C 4646.35,1855.02 4629.34,1882.99 4624.47,1889.77 C 4616.74,1900.34 4604.3,1924.3 4591.99,1948.59 C 4591.99,1948.59 4589.2,1954.1 4589.63,1953.4 C 4588.67,1954.77 4584.96,1958.84 4582.29,1961.78 C 4567.52,1978.02 4556.05,1991.67 4554.28,2006.58 C 4552.87,2017.99 4546.58,2033.88 4539.71,2043.59 C 4532.97,2052.93 4498.98,2102.45 4490.66,2157.71 C 4488.75,2170.36 4485.21,2188.4 4481.13,2209.28 C 4469.77,2267.27 4454.22,2346.66 4454.22,2408.81 C 4454.22,2489.98 4466.43,2612.34 4473.18,2634.48 C 4476.13,2644.31 4479.59,2651.8 4482.4,2657.83 C 4483.81,2660.85 4485.72,2664.99 4486,2666.41 C 4486.04,2677.84 4489.04,2708.67 4498.05,2733.63 C 4500.1,2739.28 4503.5,2749.84 4507.44,2762.06 C 4522.83,2809.88 4537.52,2854.24 4547.85,2871.72 L 4550.82,2876.79 C 4569.02,2908.19 4617.48,2991.67 4697.05,2991.67 C 4723.09,2991.67 4809.98,2951.12 4809.98,2905.9 C 4809.98,2881.84 4790.18,2850.88 4764.22,2812.94 C 4757.15,2802.57 4750.45,2792.75 4747.77,2787.54 C 4745.37,2782.95 4742.48,2776.78 4739.38,2770.25 C 4724.75,2739.4 4712.44,2714.86 4698.24,2703.23 C 4691.13,2697.34 4684.36,2692.92 4678.93,2689.39 C 4675.96,2687.43 4671.95,2684.86 4670.82,2683.73 C 4664.22,2668.54 4642.93,2644.49 4625.1,2636.56 C 4622.15,2635.27 4619.04,2634.08 4615.8,2632.81 C 4605.08,2628.61 4591.7,2623.41 4587.79,2615.86 L 4585.53,2611.56 C 4576.07,2593.7 4556.46,2556.5 4556.46,2502.49 C 4556.46,2442.89 4573.46,2384.77 4579.39,2371.44 C 4586.17,2355.96 4588.5,2331.72 4589.98,2307.45 C 4590.7,2296.62 4593.63,2284.49 4601.97,2257.6 C 4610.86,2228.98 4635.33,2158.31 4640.51,2148.02 C 4647.46,2134.4 4658.89,2106.89 4663.55,2092.69 C 4673.93,2062.03 4680.12,2053.57 4682.21,2051.48 C 4689.24,2044.47 4724.75,2008.45 4732.54,1987.89 C 4733.89,1984.23 4735.16,1980.23 4736.52,1976.05 C 4740.59,1963.48 4745.62,1947.82 4754.38,1937.49 C 4771.84,1916.97 4857.25,1786.43 4857.25,1706.18 L 4857.32,1679.41 C 4857.64,1557.87 4855.74,1504.05 4843.01,1485.14 C 4833.48,1470.94 4825.51,1448.47 4820.64,1421.81 C 4817.85,1406.86 4811.82,1389.77 4806.52,1374.68 C 4803.36,1365.76 4799.45,1354.62 4798.91,1350.77 C 4796.74,1335.04 4760.41,1237.83 4750.04,1223.01 C 4743.57,1213.81 4733.11,1178.68 4727.42,1159.75 C 4719.55,1133.75 4697.44,1076.41 4682.99,1050.37 C 4675.68,1037.29 4668.54,1017.04 4662.21,999.16 C 4657.42,985.535 4653.26,973.809 4649.08,964.98 C 4643.95,954.297 4637.7,946.328 4632.71,939.902 C 4630.61,937.227 4627.81,933.625 4627.11,932.109 C 4626.23,919.348 4619.36,905.945 4612.09,893.312 C 4609.67,888.906 4605.84,879.238 4601.82,867.488 C 4599.65,861.086 4595.84,854.363 4592.09,847.969 C 4589.47,843.367 4585.04,835.645 4584.53,833.145 C 4583.34,818.613 4575.86,795.344 4569.45,779.785 C 4566.43,772.48 4558.87,752.09 4551.6,732.422 C 4543.89,711.387 4536.58,691.504 4533.22,683.516 C 4526.76,667.793 4509.9,619.055 4506.66,606.77 C 4502.79,592.109 4489.41,550.879 4479.3,527.668 L 4467.75,502.051 C 4458.77,482.344 4448.55,459.98 4444.45,448.145 C 4441.41,439.52 4436.05,427.645 4430.92,416.184 C 4426.13,405.566 4418.91,389.512 4418.03,385.352 C 4417.79,383.879 4417.58,380.906 4417.29,377.844 C 4416.09,362.773 4414.12,337.598 4400.43,319.895 C 4393.26,310.574 4383.14,289.004 4375.04,271.672 C 4370.76,262.539 4366.7,253.867 4363.26,247.402 C 4354.22,230.098 4327.99,169.773 4319.12,143.184 C 4315.39,131.926 4308.42,112.676 4301,92.2578 C 4292.29,68.2031 4280.33,35.2734 4279,29.3086 L 4278.42,26.1133 C 4277.34,20.4492 4275.84,14.6289 4273.71,8.69922 L 4949.73,8.69922 L 4949.73,4957.01"
         style="fill:#1a5dad;fill-opacity:1;fill-rule:nonzero;stroke:none"
         id="path15" /><path
         d="M 4670.88,2683.88 C 4671.13,2684.16 4672.32,2685.5 4673.11,2688.48 C 4672.79,2687.22 4671.52,2685.36 4670.88,2683.88"
         style="fill:#1a5dad;fill-opacity:1;fill-rule:nonzero;stroke:none"
         id="path17" /><path
         d="M 564.672,5704.91 C 557.477,5704.65 546.949,5703.12 533.105,5700.31 C 519.242,5697.49 507.961,5693.29 499.23,5687.68 C 490.512,5681.79 484.48,5669.66 481.156,5651.29 C 477.82,5632.91 476.148,5610.44 476.148,5583.88 L 476.148,5347.55 C 476.148,5317.42 469.848,5291.25 457.262,5269.03 C 444.668,5246.81 428.105,5228.55 407.578,5214.27 C 387.297,5200.48 365.906,5190.57 343.441,5184.57 C 320.973,5178.59 299.457,5175.58 278.93,5175.58 C 246.059,5175.58 216.801,5179.86 191.129,5188.4 C 165.449,5196.95 143.863,5208.51 126.406,5223.07 C 109.195,5237.62 96.2148,5254.28 87.5,5273.05 C 78.7734,5291.81 74.418,5311.42 74.418,5331.84 L 74.418,5653.21 C 74.418,5662.13 72.8945,5669.61 69.9219,5675.61 C 66.918,5681.6 60.875,5687.16 51.7734,5692.27 C 45.2344,5695.84 36.9102,5698.71 26.7617,5700.89 C 16.625,5703.07 8.28516,5704.41 1.77734,5704.91 L 1.77734,5732 L 228.738,5732 L 228.738,5704.91 C 221.602,5704.65 212.605,5703.5 201.793,5701.46 C 190.969,5699.41 182.996,5697.5 177.914,5695.73 C 169.238,5692.66 163.438,5687.54 160.512,5680.4 C 157.566,5673.24 156.117,5665.46 156.117,5657.04 L 156.117,5356.74 C 156.117,5342.17 157.727,5326.93 160.953,5310.96 C 164.18,5295 170.582,5280.14 180.137,5266.35 C 190.211,5252.3 203.93,5240.79 221.23,5231.88 C 238.531,5222.93 262.32,5218.47 292.562,5218.47 C 320.973,5218.47 344.812,5222.93 364.078,5231.88 C 383.328,5240.79 398.512,5252.54 409.625,5267.11 C 420.227,5280.89 427.699,5295.32 432.109,5310.39 C 436.504,5325.44 438.707,5340.64 438.707,5355.96 L 438.707,5578.89 C 438.707,5607.23 436.641,5630.41 432.555,5648.41 C 428.422,5666.42 422.426,5678.23 414.492,5683.83 C 405.52,5690.23 393.297,5695.2 377.793,5698.78 C 362.289,5702.36 350.426,5704.41 342.242,5704.91 L 342.242,5732 L 564.672,5732 L 564.672,5704.91"
         style="fill:#1a5dad;fill-opacity:1;fill-rule:nonzero;stroke:none"
         id="path19" /><path
         d="M 1183.28,5704.91 C 1176.09,5704.65 1165.04,5702.6 1150.16,5698.78 C 1135.29,5694.95 1124.66,5691.01 1118.24,5686.93 C 1109,5680.54 1102.77,5668.28 1099.56,5650.16 C 1096.35,5632.03 1094.75,5609.07 1094.75,5581.25 L 1094.75,5183.48 L 1061.17,5183.48 L 731.605,5627.89 L 731.605,5347.82 C 731.605,5316.45 733.586,5292.34 737.566,5275.52 C 741.555,5258.67 747.672,5246.68 755.906,5239.54 C 761.816,5233.93 774.039,5228.7 792.539,5223.86 C 811.055,5219.02 823.27,5216.46 829.199,5216.21 L 829.199,5189.12 L 604.492,5189.12 L 604.492,5216.21 C 611.441,5216.7 623.164,5219.19 639.656,5223.67 C 656.148,5228.13 666.445,5232.15 670.59,5235.73 C 679.586,5242.86 685.754,5253.77 689.105,5268.45 C 692.461,5283.12 694.148,5308.18 694.148,5343.64 L 694.148,5611.15 C 694.148,5622.89 692.09,5634.62 687.98,5646.36 C 683.867,5658.1 678.328,5667.15 671.395,5673.54 C 662.145,5681.95 649.602,5689.16 633.785,5695.16 C 617.965,5701.15 605.18,5704.41 595.41,5704.91 L 595.41,5732 L 751.902,5732 L 1057.31,5318.28 L 1057.31,5576.43 C 1057.31,5608.03 1055.25,5632.3 1051.13,5649.27 C 1047.01,5666.23 1041.1,5677.5 1033.38,5683.12 C 1026.19,5687.95 1014.4,5692.67 998.07,5697.26 C 981.73,5701.85 969.312,5704.41 960.84,5704.91 L 960.84,5732 L 1183.28,5732 L 1183.28,5704.91"
         style="fill:#1a5dad;fill-opacity:1;fill-rule:nonzero;stroke:none"
         id="path21" /><path
         d="M 1482.38,5189.12 L 1237.26,5189.12 L 1237.26,5216.21 C 1244.15,5216.7 1254.12,5217.48 1267.17,5218.5 C 1280.22,5219.53 1289.42,5221.06 1294.78,5223.11 C 1303.23,5226.42 1309.37,5230.94 1313.19,5236.68 C 1317.02,5242.41 1318.96,5250.39 1318.96,5260.6 L 1318.96,5654.02 C 1318.96,5662.94 1317.54,5670.4 1314.75,5676.39 C 1311.93,5682.39 1305.28,5687.42 1294.78,5691.52 C 1287.11,5694.58 1277.45,5697.45 1265.81,5700.13 C 1254.18,5702.81 1244.66,5704.41 1237.26,5704.91 L 1237.26,5732 L 1482.38,5732 L 1482.38,5704.91 C 1474.43,5704.65 1464.98,5703.7 1453.99,5702.04 C 1442.99,5700.38 1433.4,5698.26 1425.23,5695.73 C 1415.49,5692.66 1408.97,5687.68 1405.65,5680.8 C 1402.32,5673.91 1400.66,5666.26 1400.66,5657.85 L 1400.66,5264.81 C 1400.66,5256.38 1402.52,5248.93 1406.22,5242.41 C 1409.92,5235.91 1416.25,5230.74 1425.23,5226.93 C 1430.59,5224.89 1439.34,5222.64 1451.49,5220.23 C 1463.64,5217.8 1473.94,5216.46 1482.38,5216.21 L 1482.38,5189.12"
         style="fill:#1a5dad;fill-opacity:1;fill-rule:nonzero;stroke:none"
         id="path23" /><path
         d="M 2070.75,5704.91 C 2064.08,5704.65 2056,5703.18 2046.52,5700.51 C 2037.01,5697.83 2029.18,5694.58 2023.03,5690.75 C 2014.31,5685.39 2007.31,5678.52 2002.05,5670.1 C 1996.79,5661.67 1991.6,5651.73 1986.46,5640.27 C 1969.28,5599.7 1943.49,5536.52 1909.12,5450.7 C 1874.73,5364.89 1839.32,5275.43 1802.91,5182.36 L 1770.97,5182.36 C 1734.02,5281.04 1698.36,5376.16 1663.98,5467.73 C 1629.59,5559.28 1606.23,5621.13 1593.93,5653.26 C 1590.84,5661.16 1586.75,5668.11 1581.62,5674.11 C 1576.48,5680.1 1569.69,5685.78 1561.23,5691.14 C 1554.31,5695.48 1546.61,5698.72 1538.15,5700.89 C 1529.67,5703.07 1521.87,5704.41 1514.68,5704.91 L 1514.68,5732 L 1739.95,5732 L 1739.95,5704.91 C 1720.71,5703.89 1704.5,5701.97 1691.31,5699.16 C 1678.12,5696.36 1671.54,5691.39 1671.54,5684.26 C 1671.54,5681.44 1672.05,5678.12 1673.07,5674.3 C 1674.1,5670.47 1674.98,5667.42 1675.77,5665.13 C 1685.23,5640.12 1700.6,5599.31 1721.96,5542.67 C 1743.3,5486.03 1773.63,5405.4 1812.96,5300.8 C 1832.5,5348.1 1854.98,5403.99 1880.43,5468.43 C 1905.88,5532.86 1922.97,5577.09 1931.71,5601.15 C 1940.2,5624.41 1945.13,5640.51 1946.56,5649.43 C 1947.97,5658.36 1948.68,5665.64 1948.68,5671.25 C 1948.68,5677.11 1946.05,5682.02 1940.79,5685.98 C 1935.54,5689.92 1928.55,5693.29 1919.83,5696.11 C 1911.38,5698.65 1902.79,5700.58 1894.06,5701.85 C 1885.35,5703.12 1876.52,5704.14 1867.54,5704.91 L 1867.54,5732 L 2070.75,5732 L 2070.75,5704.91"
         style="fill:#1a5dad;fill-opacity:1;fill-rule:nonzero;stroke:none"
         id="path25" /><path
         d="M 2566.35,5349.39 L 2556,5189.12 L 2104.46,5189.12 L 2104.46,5216.21 C 2112.09,5216.7 2122.27,5217.8 2135,5219.45 C 2147.75,5221.11 2156.03,5222.84 2159.86,5224.62 C 2167.99,5228.45 2173.65,5233.42 2176.84,5239.56 C 2180.03,5245.68 2181.64,5253.45 2181.64,5262.91 L 2181.64,5653.24 C 2181.64,5661.67 2180.23,5669.13 2177.42,5675.64 C 2174.61,5682.13 2168.76,5687.42 2159.86,5691.52 C 2152.98,5694.82 2143.74,5697.77 2132.15,5700.33 C 2120.57,5702.87 2111.34,5704.41 2104.46,5704.91 L 2104.46,5732 L 2525.47,5732 L 2525.47,5601.07 L 2497.13,5601.07 C 2491.99,5620.2 2480.92,5640.53 2463.85,5662.06 C 2446.8,5683.57 2430.61,5695.36 2415.21,5697.38 C 2407.29,5698.37 2397.79,5699.12 2386.74,5699.64 C 2375.74,5700.13 2363.16,5700.4 2349.11,5700.4 L 2263.34,5700.4 L 2263.34,5485.96 L 2324.79,5485.96 C 2344.51,5485.96 2358.9,5487.8 2368.01,5491.53 C 2377.07,5495.23 2385.1,5501.46 2392.01,5510.17 C 2397.64,5517.59 2402.44,5527.52 2406.41,5539.96 C 2410.39,5552.37 2413.01,5564.1 2414.28,5575.12 L 2442.64,5575.12 L 2442.64,5361.81 L 2414.28,5361.81 C 2413.26,5374.04 2410.49,5386.97 2406.02,5400.62 C 2401.54,5414.25 2396.86,5424.13 2392.01,5430.27 C 2384.06,5440.21 2375.02,5446.7 2364.92,5449.77 C 2354.8,5452.81 2341.41,5454.36 2324.79,5454.36 L 2263.34,5454.36 L 2263.34,5291.98 C 2263.34,5275.73 2264.47,5262.89 2266.78,5253.48 C 2269.07,5244.09 2273.52,5236.98 2280.17,5232.15 C 2286.79,5227.32 2295.84,5224.22 2307.32,5222.82 C 2318.79,5221.41 2335.1,5220.72 2356.29,5220.72 C 2364.71,5220.72 2375.8,5220.72 2389.55,5220.72 C 2403.32,5220.72 2414.94,5221.23 2424.38,5222.26 C 2434.06,5223.28 2444.06,5225.13 2454.38,5227.81 C 2464.73,5230.5 2472.05,5234.12 2476.39,5238.73 C 2488.11,5250.97 2500.43,5269.54 2513.3,5294.44 C 2526.17,5319.32 2534.39,5337.64 2537.97,5349.39 L 2566.35,5349.39"
         style="fill:#1a5dad;fill-opacity:1;fill-rule:nonzero;stroke:none"
         id="path27" /><path
         d="M 2932.32,5501.68 C 2908.81,5479.15 2879.41,5467.89 2844.18,5467.89 L 2793.96,5467.89 L 2793.96,5700.4 L 2859.12,5700.4 C 2893.61,5700.4 2920.31,5690.79 2939.22,5671.57 C 2958.12,5652.34 2967.6,5626.33 2967.6,5593.5 C 2967.6,5554.8 2955.82,5524.21 2932.32,5501.68 z M 3170.72,5216.21 C 3164.06,5216.46 3155.72,5217.48 3145.74,5219.26 C 3135.72,5221.02 3127.38,5223.56 3120.72,5226.86 C 3111.76,5231.41 3102.71,5237.32 3093.61,5244.55 C 3084.49,5251.78 3074.32,5263.03 3063.03,5278.34 C 3037.13,5312.99 3015.29,5342.42 2997.44,5366.64 C 2979.63,5390.83 2957.27,5420.65 2930.33,5456.09 C 2949.75,5461.69 2967.48,5468.54 2983.59,5476.57 C 2999.69,5484.62 3013.5,5494.14 3024.98,5505.14 C 3037.5,5516.89 3046.95,5530.8 3053.34,5546.91 C 3059.73,5562.98 3062.91,5581.52 3062.91,5602.47 C 3062.91,5625.71 3058.18,5645.59 3048.71,5662.06 C 3039.24,5678.53 3026.58,5691.88 3010.74,5702.11 C 2994.36,5712.58 2976.05,5720.19 2955.82,5724.91 C 2935.62,5729.64 2914,5732 2890.98,5732 L 2639.61,5732 L 2639.61,5704.91 C 2646.74,5704.41 2655.43,5703.18 2665.61,5701.28 C 2675.78,5699.36 2684.08,5697.26 2690.47,5694.97 C 2699.9,5691.39 2705.86,5686.15 2708.42,5679.27 C 2710.98,5672.38 2712.25,5664.47 2712.25,5655.55 L 2712.25,5262.91 C 2712.25,5252.94 2710.53,5244.78 2707.09,5238.4 C 2703.65,5232.01 2698.11,5227.17 2690.47,5223.86 C 2685.86,5221.82 2677.77,5220.14 2666.17,5218.88 C 2654.59,5217.6 2645.72,5216.7 2639.61,5216.21 L 2639.61,5189.12 L 2869.98,5189.12 L 2869.98,5216.21 C 2862.01,5216.46 2852.23,5217.36 2840.64,5218.88 C 2829.06,5220.39 2820.96,5222.05 2816.35,5223.83 C 2807.07,5227.37 2801.04,5232.5 2798.2,5239.24 C 2795.35,5245.98 2793.96,5253.79 2793.96,5262.68 L 2793.96,5434.04 L 2850.37,5434.04 C 2881,5394.92 2909.38,5356.97 2935.55,5320.15 C 2961.7,5283.33 2990.98,5239.65 3023.4,5189.12 L 3170.72,5189.12 L 3170.72,5216.21"
         style="fill:#1a5dad;fill-opacity:1;fill-rule:nonzero;stroke:none"
         id="path29" /><path
         d="M 3546.78,5438.16 C 3558.28,5425.39 3566.82,5411.41 3572.29,5396.23 C 3577.79,5381.05 3580.57,5363.38 3580.57,5343.22 C 3580.57,5295.23 3562.77,5255.68 3527.19,5224.53 C 3491.62,5193.39 3447.48,5177.84 3394.75,5177.84 C 3370.45,5177.84 3346.13,5181.7 3321.84,5189.41 C 3297.52,5197.11 3276.54,5206.31 3258.87,5217.04 L 3242.36,5189.12 L 3211.74,5189.12 L 3206.05,5375.35 L 3236.7,5375.35 C 3243.11,5352.35 3250.61,5331.58 3259.18,5313.06 C 3267.77,5294.55 3279.08,5277.23 3293.18,5261.14 C 3306.48,5246.05 3322.05,5234.04 3339.84,5225.09 C 3357.68,5216.16 3378.34,5211.7 3401.91,5211.7 C 3419.59,5211.7 3435.02,5213.99 3448.22,5218.59 C 3461.41,5223.17 3472.09,5229.7 3480.33,5238.13 C 3488.5,5246.56 3494.59,5256.45 3498.55,5267.82 C 3502.54,5279.18 3504.51,5292.29 3504.51,5307.1 C 3504.51,5328.81 3498.38,5349.05 3486.13,5367.82 C 3473.89,5386.58 3455.62,5400.84 3431.41,5410.55 C 3414.79,5417.14 3395.78,5424.43 3374.34,5432.43 C 3352.87,5440.43 3334.39,5447.97 3318.83,5455.08 C 3288.18,5468.83 3264.38,5486.86 3247.4,5509.14 C 3230.41,5531.44 3221.95,5560.55 3221.95,5596.5 C 3221.95,5617.13 3226.15,5636.36 3234.61,5654.21 C 3243.05,5672.04 3255.06,5687.97 3270.64,5701.98 C 3285.47,5715.23 3303.01,5725.62 3323.2,5733.12 C 3343.4,5740.64 3364.51,5744.42 3386.5,5744.42 C 3411.54,5744.42 3433.98,5740.55 3453.81,5732.85 C 3473.63,5725.14 3491.72,5716.18 3508.07,5705.98 L 3523.81,5732 L 3554.47,5732 L 3557.87,5551.42 L 3527.21,5551.42 C 3521.56,5572.07 3515.21,5591.84 3508.14,5610.7 C 3501.09,5629.58 3491.91,5646.66 3480.62,5661.97 C 3469.57,5676.75 3456.09,5688.55 3440.16,5697.34 C 3424.24,5706.14 3404.73,5710.56 3381.64,5710.56 C 3357.25,5710.56 3336.43,5702.8 3319.24,5687.28 C 3302.03,5671.76 3293.44,5652.8 3293.44,5630.41 C 3293.44,5607 3298.95,5587.6 3309.94,5572.21 C 3320.94,5556.81 3336.93,5544.16 3357.93,5534.24 C 3376.6,5525.3 3394.94,5517.57 3413.01,5511.07 C 3431.05,5504.57 3448.52,5497.62 3465.41,5490.23 C 3480.76,5483.59 3495.55,5476.06 3509.73,5467.63 C 3523.93,5459.2 3536.29,5449.39 3546.78,5438.16"
         style="fill:#1a5dad;fill-opacity:1;fill-rule:nonzero;stroke:none"
         id="path31" /><path
         d="M 3903.4,5189.12 L 3658.26,5189.12 L 3658.26,5216.21 C 3665.14,5216.7 3675.12,5217.48 3688.16,5218.5 C 3701.21,5219.53 3710.41,5221.06 3715.8,5223.11 C 3724.24,5226.42 3730.37,5230.94 3734.22,5236.68 C 3738.05,5242.41 3739.98,5250.39 3739.98,5260.6 L 3739.98,5654.02 C 3739.98,5662.94 3738.55,5670.4 3735.74,5676.39 C 3732.93,5682.39 3726.27,5687.42 3715.8,5691.52 C 3708.12,5694.58 3698.48,5697.45 3686.84,5700.13 C 3675.2,5702.81 3665.66,5704.41 3658.26,5704.91 L 3658.26,5732 L 3903.4,5732 L 3903.4,5704.91 C 3895.47,5704.65 3886,5703.7 3874.98,5702.04 C 3864,5700.38 3854.41,5698.26 3846.23,5695.73 C 3836.5,5692.66 3829.96,5687.68 3826.66,5680.8 C 3823.32,5673.91 3821.68,5666.26 3821.68,5657.85 L 3821.68,5264.81 C 3821.68,5256.38 3823.52,5248.93 3827.23,5242.41 C 3830.94,5235.91 3837.27,5230.74 3846.23,5226.93 C 3851.6,5224.89 3860.35,5222.64 3872.5,5220.23 C 3884.65,5217.8 3894.96,5216.46 3903.4,5216.21 L 3903.4,5189.12"
         style="fill:#1a5dad;fill-opacity:1;fill-rule:nonzero;stroke:none"
         id="path33" /><path
         d="M 4431.62,5585.28 L 4405.51,5585.28 C 4403.16,5594.44 4398.98,5605.35 4392.91,5617.97 C 4386.84,5630.58 4380.04,5642.5 4372.56,5653.72 C 4364.79,5665.43 4356.35,5675.69 4347.15,5684.49 C 4337.97,5693.27 4329.12,5698.32 4320.62,5699.61 C 4312.6,5700.61 4302.52,5701.37 4290.35,5701.89 C 4278.22,5702.39 4266.97,5702.66 4256.62,5702.66 L 4234.16,5702.66 L 4234.16,5267.91 C 4234.16,5259.49 4235.92,5251.76 4239.51,5244.74 C 4243.11,5237.73 4249.36,5232.3 4258.28,5228.47 C 4262.89,5226.66 4272.56,5224.25 4287.21,5221.18 C 4301.91,5218.12 4313.34,5216.46 4321.54,5216.21 L 4321.54,5189.12 L 4063.93,5189.12 L 4063.93,5216.21 C 4071.11,5216.7 4082.13,5217.73 4096.95,5219.26 C 4111.78,5220.8 4122.03,5222.72 4127.71,5225.02 C 4136.21,5228.34 4142.42,5233.12 4146.45,5239.38 C 4150.43,5245.62 4152.42,5254 4152.42,5264.48 L 4152.42,5702.66 L 4130.1,5702.66 C 4122.13,5702.66 4112.27,5702.46 4100.43,5702.07 C 4088.63,5701.69 4077.34,5700.88 4066.56,5699.61 C 4058.09,5698.59 4049.3,5693.54 4040.2,5684.49 C 4031.05,5675.43 4022.64,5665.18 4014.94,5653.72 C 4007.23,5642.23 4000.43,5630.07 3994.53,5617.2 C 3988.61,5604.33 3984.51,5593.67 3982.21,5585.28 L 3954.98,5585.28 L 3954.98,5732 L 4431.62,5732 L 4431.62,5585.28"
         style="fill:#1a5dad;fill-opacity:1;fill-rule:nonzero;stroke:none"
         id="path35" /><path
         d="M 4949.67,5349.39 L 4939.32,5189.12 L 4487.79,5189.12 L 4487.79,5216.21 C 4495.41,5216.7 4505.59,5217.8 4518.34,5219.45 C 4531.04,5221.11 4539.36,5222.84 4543.16,5224.62 C 4551.31,5228.45 4556.95,5233.42 4560.16,5239.56 C 4563.36,5245.68 4564.94,5253.45 4564.94,5262.91 L 4564.94,5653.24 C 4564.94,5661.67 4563.52,5669.13 4560.76,5675.64 C 4557.91,5682.13 4552.09,5687.42 4543.16,5691.52 C 4536.29,5694.82 4527.07,5697.77 4515.47,5700.33 C 4503.89,5702.87 4494.67,5704.41 4487.79,5704.91 L 4487.79,5732 L 4908.79,5732 L 4908.79,5601.07 L 4880.45,5601.07 C 4875.29,5620.2 4864.18,5640.53 4847.17,5662.06 C 4830.12,5683.57 4813.91,5695.36 4798.52,5697.38 C 4790.57,5698.37 4781.11,5699.12 4770.06,5699.64 C 4759.04,5700.13 4746.48,5700.4 4732.4,5700.4 L 4646.66,5700.4 L 4646.66,5485.96 L 4708.09,5485.96 C 4727.79,5485.96 4742.19,5487.8 4751.29,5491.53 C 4760.37,5495.23 4768.42,5501.46 4775.33,5510.17 C 4780.92,5517.59 4785.74,5527.52 4789.71,5539.96 C 4793.69,5552.37 4796.31,5564.1 4797.6,5575.12 L 4825.96,5575.12 L 4825.96,5361.81 L 4797.6,5361.81 C 4796.58,5374.04 4793.79,5386.97 4789.32,5400.62 C 4784.82,5414.25 4780.18,5424.13 4775.33,5430.27 C 4767.36,5440.21 4758.34,5446.7 4748.22,5449.77 C 4738.11,5452.81 4724.75,5454.36 4708.09,5454.36 L 4646.66,5454.36 L 4646.66,5291.98 C 4646.66,5275.73 4647.77,5262.89 4650.1,5253.48 C 4652.4,5244.09 4656.88,5236.98 4663.46,5232.15 C 4670.12,5227.32 4679.14,5224.22 4690.64,5222.82 C 4702.11,5221.41 4718.42,5220.72 4739.61,5220.72 C 4748.01,5220.72 4759.12,5220.72 4772.87,5220.72 C 4786.62,5220.72 4798.22,5221.23 4807.66,5222.26 C 4817.38,5223.28 4827.38,5225.13 4837.7,5227.81 C 4848.01,5230.5 4855.37,5234.12 4859.73,5238.73 C 4871.43,5250.97 4883.73,5269.54 4896.62,5294.44 C 4909.47,5319.32 4917.71,5337.64 4921.29,5349.39 L 4949.67,5349.39 z M 4790.57,5829.94 C 4779.3,5824.34 4761.78,5815.89 4738.05,5804.57 C 4714.32,5793.25 4687.44,5780.36 4657.42,5765.86 L 4645.53,5780.75 C 4668.85,5802.86 4687.91,5821.09 4702.64,5835.47 C 4717.4,5849.82 4731.97,5864.51 4746.31,5879.52 C 4754.53,5888.16 4762.01,5894.34 4768.83,5898.02 C 4775.61,5901.7 4782.87,5903.55 4790.57,5903.55 C 4800.29,5903.55 4808.65,5900.62 4815.57,5894.77 C 4822.5,5888.92 4825.96,5881.69 4825.96,5873.05 C 4825.96,5862.11 4822.64,5853.46 4815.98,5847.1 C 4809.28,5840.74 4800.82,5835.03 4790.57,5829.94"
         style="fill:#1a5dad;fill-opacity:1;fill-rule:nonzero;stroke:none"
         id="path37" /><path
         d="M 351.605,4359.32 C 340.461,4351.95 326.391,4348.28 309.391,4348.28 C 293.441,4348.28 279.691,4351.84 268.125,4359 C 256.539,4366.16 247.031,4375.63 239.602,4387.43 C 231.527,4399.84 225.777,4413.25 222.395,4427.67 C 218.988,4442.09 217.297,4458.14 217.297,4475.82 C 217.297,4497.91 219.57,4518.08 224.141,4536.27 C 228.699,4554.47 234.926,4569.48 242.797,4581.27 C 251.062,4593.48 260.57,4602.84 271.312,4609.37 C 282.035,4615.89 293.777,4619.15 306.527,4619.15 C 317.574,4619.15 327.234,4617.41 335.523,4613.94 C 343.812,4610.46 351.02,4606.11 357.191,4600.84 C 362.926,4595.58 367.711,4589.8 371.539,4583.48 C 375.336,4577.16 378.105,4571.27 379.824,4565.8 L 379.824,4383.64 C 372.168,4374.79 362.75,4366.68 351.605,4359.32 z M 494.945,4349.41 C 488.578,4349.62 481.578,4350.04 473.953,4350.68 C 466.34,4351.31 460.504,4352.89 456.48,4355.42 C 450.977,4359 446.777,4363.38 443.926,4368.56 C 441.062,4373.73 439.645,4380 439.645,4387.41 L 439.645,4808.54 L 434.859,4813.28 L 306.461,4806.52 L 306.461,4785.07 C 318.098,4784.22 328.945,4782.89 339,4781.11 C 349.055,4779.31 357.051,4776.43 362.996,4772.43 C 368.285,4768.61 372.41,4763.09 375.375,4755.82 C 378.34,4748.56 379.824,4740.5 379.824,4731.65 L 379.824,4623.23 C 369.664,4628.92 357.562,4633.61 343.512,4637.32 C 329.457,4641.01 315.137,4642.86 300.551,4642.86 C 281.098,4642.86 262.02,4638.62 243.305,4630.2 C 224.594,4621.75 208.801,4610.46 195.902,4596.32 C 182.168,4581.12 171.391,4563.39 163.559,4543.14 C 155.727,4522.87 151.836,4501.44 151.836,4478.87 C 151.836,4454.16 155.469,4431.57 162.77,4411.11 C 170.074,4390.64 179.941,4373.12 192.426,4358.56 C 204.668,4344.21 219.098,4333.06 235.688,4325.16 C 252.285,4317.26 269.465,4313.3 287.234,4313.3 C 304.34,4313.3 320.992,4317.21 337.156,4325 C 353.336,4332.82 366.91,4342.85 377.922,4355.09 L 380.461,4354.45 L 380.461,4325.59 L 385.234,4321.19 L 494.945,4327.96 L 494.945,4349.41"
         style="fill:#ffffff;fill-opacity:1;fill-rule:nonzero;stroke:none"
         id="path39" /><path
         d="M 601.352,4514.19 C 602.59,4547.17 610.434,4572.89 624.895,4591.4 C 639.34,4609.9 657.484,4619.15 679.32,4619.15 C 692.402,4619.15 703.109,4616.09 711.43,4609.95 C 719.758,4603.81 726.301,4595.89 731.094,4586.18 C 735.449,4577.07 738.629,4565.77 740.602,4552.25 C 742.578,4538.7 743.562,4526.02 743.562,4514.19 L 601.352,4514.19 z M 792.094,4409.23 C 779.52,4386.25 766.477,4370.34 752.965,4361.52 C 739.453,4352.69 723.375,4348.28 704.73,4348.28 C 686.492,4348.28 670.781,4351.79 657.594,4358.84 C 644.398,4365.89 633.711,4375.51 625.547,4387.71 C 617.152,4400.34 611.031,4414.95 607.156,4431.57 C 603.27,4448.18 601.352,4466.7 601.352,4487.1 L 806.773,4487.1 L 806.773,4508.09 C 806.773,4526.94 804.387,4544.42 799.664,4560.54 C 794.938,4576.64 787.738,4590.62 778.07,4602.49 C 767.988,4614.98 754.848,4624.84 738.656,4632.05 C 722.473,4639.24 703.035,4642.86 680.344,4642.86 C 658.262,4642.86 638.352,4638.26 620.59,4629.07 C 602.816,4619.88 587.949,4607.79 575.977,4592.79 C 563.578,4577.15 554.18,4559.57 547.758,4540.03 C 541.34,4520.48 538.148,4500.57 538.148,4480.3 C 538.148,4457.69 541.148,4436.24 547.145,4415.96 C 553.141,4395.68 562.242,4377.93 574.441,4362.72 C 586.648,4347.5 602.184,4335.46 621.02,4326.59 C 639.855,4317.73 661.785,4313.3 686.832,4313.3 C 715.227,4313.3 740.375,4320.73 762.258,4335.6 C 784.141,4350.46 801.617,4370.45 814.668,4395.52 L 792.094,4409.23"
         style="fill:#ffffff;fill-opacity:1;fill-rule:nonzero;stroke:none"
         id="path41" /><path
         d="M 1259.62,4558.66 C 1245.37,4551.58 1226.85,4548.05 1204.07,4548.05 L 1171.78,4548.05 L 1171.78,4746.69 L 1216.42,4746.69 C 1234.35,4746.69 1249.34,4743.94 1261.37,4738.46 C 1273.39,4732.95 1283.09,4725.25 1290.48,4715.32 C 1297.43,4706.02 1302.34,4695.14 1305.19,4682.69 C 1308.05,4670.23 1309.47,4657.97 1309.47,4645.94 C 1309.47,4637.29 1308.31,4627.51 1305.98,4616.63 C 1303.65,4605.75 1298.91,4595.24 1291.75,4585.12 C 1284.57,4574.55 1273.87,4565.73 1259.62,4558.66 z M 1349.33,4742.31 C 1323.23,4762.53 1289.24,4772.65 1247.41,4772.65 L 1041.98,4772.65 L 1041.98,4750.08 C 1047.64,4749.65 1054.41,4748.86 1062.3,4747.7 C 1070.18,4746.54 1078.11,4744.58 1086.11,4741.83 C 1093.87,4738.86 1098.81,4734.41 1100.91,4728.49 C 1103,4722.56 1104.06,4715.92 1104.06,4708.51 L 1104.06,4383.61 C 1104.06,4375.35 1102.63,4368.58 1099.81,4363.29 C 1096.97,4358 1092.41,4354 1086.11,4351.24 C 1082.34,4349.55 1075.67,4348.18 1066.11,4347.11 C 1056.55,4346.05 1049.27,4345.31 1044.24,4344.89 L 1044.24,4322.32 L 1236.11,4322.32 L 1236.11,4344.89 C 1228.19,4345.11 1219.5,4345.84 1210.02,4347.11 C 1200.56,4348.38 1193.95,4349.75 1190.2,4351.22 C 1182.7,4354.18 1177.76,4358.46 1175.36,4364.06 C 1172.96,4369.65 1171.78,4376.14 1171.78,4383.55 L 1171.78,4519.84 L 1222.23,4519.84 C 1243.8,4519.84 1264.2,4522.58 1283.46,4528.09 C 1302.7,4533.59 1320.35,4542.28 1336.44,4554.14 C 1352.73,4565.98 1365.47,4580.97 1374.67,4599.07 C 1383.88,4617.17 1388.48,4637.97 1388.48,4661.48 C 1388.48,4695.14 1375.43,4722.09 1349.33,4742.31"
         style="fill:#ffffff;fill-opacity:1;fill-rule:nonzero;stroke:none"
         id="path43" /><path
         d="M 1597.05,4322.32 L 1444.68,4322.32 L 1444.68,4343.77 C 1449.57,4344.19 1454.61,4344.61 1459.83,4345.04 C 1465.05,4345.46 1469.57,4346.29 1473.41,4347.55 C 1479.35,4349.46 1483.76,4352.77 1486.64,4357.54 C 1489.51,4362.28 1490.96,4368.45 1490.96,4376.05 L 1490.96,4568.84 C 1490.96,4575.58 1489.43,4581.75 1486.39,4587.34 C 1483.36,4592.93 1479.1,4597.64 1473.68,4601.45 C 1469.69,4603.98 1463.92,4606.12 1456.39,4607.91 C 1448.84,4609.72 1441.93,4610.83 1435.65,4611.25 L 1435.65,4632.7 L 1546.33,4639.47 L 1550.78,4635.02 L 1550.78,4379.93 C 1550.78,4372.53 1552.19,4366.39 1555.04,4361.52 C 1557.9,4356.66 1562.38,4353.08 1568.52,4350.75 C 1573.17,4348.84 1577.7,4347.31 1582.14,4346.14 C 1586.59,4344.98 1591.55,4344.19 1597.05,4343.77 L 1597.05,4322.32 z M 1557.55,4762.46 C 1557.55,4750.38 1553.58,4739.84 1545.64,4730.84 C 1537.71,4721.85 1527.92,4717.35 1516.28,4717.35 C 1505.49,4717.35 1496.12,4721.63 1488.19,4730.21 C 1480.25,4738.77 1476.29,4748.59 1476.29,4759.6 C 1476.29,4771.24 1480.25,4781.42 1488.19,4790.09 C 1496.12,4798.77 1505.49,4803.12 1516.28,4803.12 C 1528.34,4803.12 1538.23,4799.03 1545.96,4790.89 C 1553.69,4782.73 1557.55,4773.25 1557.55,4762.46"
         style="fill:#ffffff;fill-opacity:1;fill-rule:nonzero;stroke:none"
         id="path45" /><path
         d="M 1793.56,4313.3 C 1748.06,4313.3 1712.46,4328.28 1686.74,4358.28 C 1661.01,4388.28 1648.16,4428.52 1648.16,4479.02 C 1648.16,4501 1651.62,4521.54 1658.52,4540.66 C 1665.44,4559.77 1675.47,4577.15 1688.66,4592.79 C 1701.22,4607.79 1716.95,4619.88 1735.89,4629.07 C 1754.81,4638.26 1775.45,4642.86 1797.77,4642.86 C 1828.61,4642.86 1853.71,4635.47 1873.07,4620.71 C 1892.42,4605.93 1902.1,4585.8 1902.1,4560.31 C 1902.1,4549.69 1899.55,4540.29 1894.46,4532.11 C 1889.37,4523.93 1880.99,4519.84 1869.32,4519.84 C 1856.8,4519.84 1847.09,4523.03 1840.2,4529.41 C 1833.3,4535.8 1829.87,4542.94 1829.87,4550.82 C 1829.87,4560.39 1831.14,4570.23 1833.68,4580.36 C 1836.21,4590.46 1837.72,4597.85 1838.14,4602.54 C 1834.29,4609.14 1828.6,4613.56 1821.02,4615.8 C 1813.43,4618.03 1805.27,4619.15 1796.52,4619.15 C 1786.27,4619.15 1776.51,4616.98 1767.23,4612.65 C 1757.95,4608.3 1748.94,4600.33 1740.19,4588.73 C 1732.29,4578.18 1725.88,4563.92 1720.97,4545.97 C 1716.07,4528.02 1713.62,4506.57 1713.62,4481.66 C 1713.62,4442.36 1722.39,4410.32 1739.95,4385.51 C 1757.51,4360.68 1780.54,4348.28 1809.08,4348.28 C 1829.71,4348.28 1846.99,4353.25 1860.94,4363.23 C 1874.88,4373.2 1887.8,4388.16 1899.72,4408.1 L 1920.16,4394.73 C 1906.12,4369.7 1887.64,4349.88 1864.68,4335.25 C 1841.72,4320.61 1818,4313.3 1793.56,4313.3"
         style="fill:#ffffff;fill-opacity:1;fill-rule:nonzero;stroke:none"
         id="path47" /><path
         d="M 2138.08,4384.9 C 2130.39,4375.01 2120.96,4366.44 2109.75,4359.18 C 2098.55,4351.91 2085.6,4348.28 2070.87,4348.28 C 2056.98,4348.28 2045.51,4352.38 2036.48,4360.59 C 2027.45,4368.8 2022.95,4381.64 2022.95,4399.12 C 2022.95,4412.59 2025.99,4424.23 2032.05,4434.02 C 2038.12,4443.81 2046.38,4452.3 2056.85,4459.45 C 2068.35,4467.03 2080.8,4473.35 2094.2,4478.39 C 2107.59,4483.44 2123.18,4488.6 2140.97,4493.87 L 2138.08,4384.9 z M 2252.07,4348.28 C 2244.8,4348.28 2237.7,4348.38 2230.76,4348.6 C 2223.79,4348.81 2218.72,4349.85 2215.53,4351.75 C 2209.53,4355.12 2205.1,4359.23 2202.22,4364.08 C 2199.32,4368.91 2197.89,4375.45 2197.89,4383.68 C 2197.89,4411.27 2198.26,4436.72 2199.02,4460 C 2199.77,4483.28 2200.16,4510 2200.16,4540.13 C 2200.16,4561.19 2197.35,4578.42 2191.78,4591.8 C 2186.2,4605.19 2178.04,4615.79 2167.31,4623.58 C 2156.58,4631.59 2144.64,4636.79 2131.48,4639.22 C 2118.32,4641.64 2102.91,4642.86 2085.24,4642.86 C 2072.4,4642.86 2059.24,4640.79 2045.77,4636.66 C 2032.3,4632.54 2020.82,4627.51 2011.37,4621.58 C 2000.42,4614.61 1991.53,4606.69 1984.69,4597.8 C 1977.84,4588.91 1974.43,4579.59 1974.43,4569.86 C 1974.43,4560.55 1976.91,4552.16 1981.9,4544.64 C 1986.89,4537.13 1994.71,4533.38 2005.34,4533.38 C 2017.22,4533.38 2026.52,4536.42 2033.22,4542.52 C 2039.92,4548.61 2043.27,4555.33 2043.27,4562.71 C 2043.27,4569.63 2042.25,4577.2 2040.23,4585.4 C 2038.23,4593.61 2037.22,4599.81 2037.22,4604.02 C 2040.54,4607.59 2046.32,4611.01 2054.56,4614.27 C 2062.77,4617.52 2071.68,4619.15 2081.27,4619.15 C 2095.22,4619.15 2106,4616.24 2113.62,4610.46 C 2121.21,4604.68 2127.11,4597.89 2131.27,4590.11 C 2135,4583.16 2137.46,4575.79 2138.61,4568 C 2139.75,4560.2 2140.33,4554.95 2140.33,4552.21 L 2140.33,4520.96 C 2130.28,4515.46 2110.85,4507.86 2082.07,4498.14 C 2053.29,4488.41 2034.17,4481.76 2024.76,4478.16 C 2017.21,4475.2 2009.14,4471.23 2000.57,4466.26 C 1991.99,4461.29 1985.07,4455.64 1979.86,4449.31 C 1973.15,4441.7 1968.12,4433.14 1964.78,4423.63 C 1961.43,4414.11 1959.75,4403.34 1959.75,4391.29 C 1959.75,4368.03 1967.19,4349.21 1982.08,4334.84 C 1996.96,4320.49 2015.97,4313.3 2039.11,4313.3 C 2060.97,4313.3 2079.67,4317.43 2095.19,4325.69 C 2110.71,4333.94 2125.24,4345.7 2138.79,4360.94 L 2140.65,4360.94 C 2143.44,4346.13 2149.8,4334.86 2159.75,4327.13 C 2169.7,4319.41 2183.03,4315.55 2199.72,4315.55 C 2209.36,4315.55 2217.98,4316.68 2225.59,4318.92 C 2233.17,4321.17 2242.01,4324.1 2252.07,4327.73 L 2252.07,4348.28"
         style="fill:#ffffff;fill-opacity:1;fill-rule:nonzero;stroke:none"
         id="path49" /><path
         d="M 2537.36,4594.94 C 2537.36,4584.15 2534.71,4574.57 2529.41,4566.21 C 2524.12,4557.85 2515.98,4553.7 2505,4553.7 C 2493.14,4553.7 2484.1,4556.78 2477.85,4562.98 C 2471.62,4569.18 2468.52,4576.02 2468.52,4583.52 C 2468.52,4588.2 2468.89,4592.47 2469.61,4596.32 C 2470.35,4600.17 2471.05,4604.02 2471.68,4607.87 C 2461.78,4607.87 2450.18,4603.79 2436.89,4595.66 C 2423.59,4587.52 2412.32,4575.97 2403.05,4560.98 L 2403.05,4379.23 C 2403.05,4371.84 2404.45,4365.82 2407.32,4361.19 C 2410.18,4356.54 2414.65,4353.06 2420.76,4350.73 C 2426.05,4348.61 2432.85,4347.03 2441.19,4345.97 C 2449.51,4344.91 2456.74,4344.19 2462.85,4343.77 L 2462.85,4322.32 L 2296.96,4322.32 L 2296.96,4343.77 C 2301.83,4344.19 2306.87,4344.61 2312.11,4345.04 C 2317.31,4345.46 2321.84,4346.29 2325.69,4347.55 C 2331.62,4349.46 2336.03,4352.77 2338.9,4357.54 C 2341.77,4362.28 2343.23,4368.45 2343.23,4376.05 L 2343.23,4568.84 C 2343.23,4575.37 2341.68,4581.8 2338.61,4588.14 C 2335.54,4594.47 2331.23,4599.53 2325.71,4603.34 C 2321.68,4605.88 2316.9,4607.71 2311.4,4608.87 C 2305.88,4610.04 2299.94,4610.83 2293.56,4611.25 L 2293.56,4632.7 L 2398.55,4639.47 L 2403.05,4634.99 L 2403.05,4590.5 L 2404.63,4590.5 C 2417.71,4607.64 2432.29,4620.64 2448.32,4629.53 C 2464.38,4638.42 2479.06,4642.86 2492.38,4642.86 C 2505.66,4642.86 2516.5,4638.52 2524.82,4629.84 C 2533.16,4621.16 2537.36,4609.55 2537.36,4594.94"
         style="fill:#ffffff;fill-opacity:1;fill-rule:nonzero;stroke:none"
         id="path51" /><path
         d="M 2776.07,4359.32 C 2764.92,4351.95 2750.86,4348.28 2733.83,4348.28 C 2717.89,4348.28 2704.14,4351.84 2692.58,4359 C 2681,4366.16 2671.48,4375.63 2664.06,4387.43 C 2655.98,4399.84 2650.23,4413.25 2646.84,4427.67 C 2643.44,4442.09 2641.76,4458.14 2641.76,4475.82 C 2641.76,4497.91 2644.02,4518.08 2648.59,4536.27 C 2653.16,4554.47 2659.39,4569.48 2667.25,4581.27 C 2675.53,4593.48 2685.04,4602.84 2695.76,4609.37 C 2706.48,4615.89 2718.24,4619.15 2731,4619.15 C 2742.03,4619.15 2751.7,4617.41 2759.98,4613.94 C 2768.26,4610.46 2775.49,4606.11 2781.66,4600.84 C 2787.38,4595.58 2792.15,4589.8 2796,4583.48 C 2799.8,4577.16 2802.58,4571.27 2804.28,4565.8 L 2804.28,4383.64 C 2796.62,4374.79 2787.21,4366.68 2776.07,4359.32 z M 2919.39,4349.41 C 2913.03,4349.62 2906.02,4350.04 2898.42,4350.68 C 2890.8,4351.31 2884.96,4352.89 2880.94,4355.42 C 2875.43,4359 2871.25,4363.38 2868.38,4368.56 C 2865.53,4373.73 2864.1,4380 2864.1,4387.41 L 2864.1,4808.54 L 2859.32,4813.28 L 2730.92,4806.52 L 2730.92,4785.07 C 2742.56,4784.22 2753.4,4782.89 2763.46,4781.11 C 2773.52,4779.31 2781.52,4776.43 2787.46,4772.43 C 2792.73,4768.61 2796.88,4763.09 2799.84,4755.82 C 2802.79,4748.56 2804.28,4740.5 2804.28,4731.65 L 2804.28,4623.23 C 2794.12,4628.92 2782.03,4633.61 2767.97,4637.32 C 2753.93,4641.01 2739.59,4642.86 2725,4642.86 C 2705.55,4642.86 2686.46,4638.62 2667.75,4630.2 C 2649.06,4621.75 2633.26,4610.46 2620.35,4596.32 C 2606.62,4581.12 2595.84,4563.39 2588.03,4543.14 C 2580.2,4522.87 2576.29,4501.44 2576.29,4478.87 C 2576.29,4454.16 2579.92,4431.57 2587.23,4411.11 C 2594.53,4390.64 2604.39,4373.12 2616.89,4358.56 C 2629.12,4344.21 2643.55,4333.06 2660.14,4325.16 C 2676.74,4317.26 2693.93,4313.3 2711.68,4313.3 C 2728.79,4313.3 2745.45,4317.21 2761.62,4325 C 2777.79,4332.82 2791.39,4342.85 2802.38,4355.09 L 2804.9,4354.45 L 2804.9,4325.59 L 2809.69,4321.19 L 2919.39,4327.96 L 2919.39,4349.41"
         style="fill:#ffffff;fill-opacity:1;fill-rule:nonzero;stroke:none"
         id="path53" /><path
         d="M 3114.96,4322.32 L 2962.6,4322.32 L 2962.6,4343.77 C 2967.48,4344.19 2972.52,4344.61 2977.73,4345.04 C 2982.97,4345.46 2987.46,4346.29 2991.31,4347.55 C 2997.25,4349.46 3001.66,4352.77 3004.55,4357.54 C 3007.42,4362.28 3008.87,4368.45 3008.87,4376.05 L 3008.87,4568.84 C 3008.87,4575.58 3007.32,4581.75 3004.3,4587.34 C 3001.27,4592.93 2997.01,4597.64 2991.58,4601.45 C 2987.6,4603.98 2981.82,4606.12 2974.3,4607.91 C 2966.76,4609.72 2959.84,4610.83 2953.55,4611.25 L 2953.55,4632.7 L 3064.24,4639.47 L 3068.69,4635.02 L 3068.69,4379.93 C 3068.69,4372.53 3070.1,4366.39 3072.95,4361.52 C 3075.8,4356.66 3080.27,4353.08 3086.41,4350.75 C 3091.07,4348.84 3095.62,4347.31 3100.04,4346.14 C 3104.49,4344.98 3109.45,4344.19 3114.96,4343.77 L 3114.96,4322.32 z M 3075.47,4762.46 C 3075.47,4750.38 3071.48,4739.84 3063.55,4730.84 C 3055.61,4721.85 3045.82,4717.35 3034.18,4717.35 C 3023.4,4717.35 3014.02,4721.63 3006.09,4730.21 C 2998.16,4738.77 2994.18,4748.59 2994.18,4759.6 C 2994.18,4771.24 2998.16,4781.42 3006.09,4790.09 C 3014.02,4798.77 3023.4,4803.12 3034.18,4803.12 C 3046.25,4803.12 3056.13,4799.03 3063.87,4790.89 C 3071.58,4782.73 3075.47,4773.25 3075.47,4762.46"
         style="fill:#ffffff;fill-opacity:1;fill-rule:nonzero;stroke:none"
         id="path55" /><path
         d="M 3229.24,4514.19 C 3230.49,4547.17 3238.32,4572.89 3252.79,4591.4 C 3267.25,4609.9 3285.37,4619.15 3307.21,4619.15 C 3320.31,4619.15 3331,4616.09 3339.34,4609.95 C 3347.66,4603.81 3354.2,4595.89 3358.98,4586.18 C 3363.34,4577.07 3366.52,4565.77 3368.5,4552.25 C 3370.47,4538.7 3371.46,4526.02 3371.46,4514.19 L 3229.24,4514.19 z M 3419.98,4409.23 C 3407.42,4386.25 3394.36,4370.34 3380.86,4361.52 C 3367.36,4352.69 3351.27,4348.28 3332.62,4348.28 C 3314.39,4348.28 3298.67,4351.79 3285.49,4358.84 C 3272.29,4365.89 3261.6,4375.51 3253.44,4387.71 C 3245.04,4400.34 3238.93,4414.95 3235.06,4431.57 C 3231.17,4448.18 3229.24,4466.7 3229.24,4487.1 L 3434.67,4487.1 L 3434.67,4508.09 C 3434.67,4526.94 3432.29,4544.42 3427.56,4560.54 C 3422.83,4576.64 3415.62,4590.62 3405.96,4602.49 C 3395.88,4614.98 3382.73,4624.84 3366.56,4632.05 C 3350.37,4639.24 3330.94,4642.86 3308.24,4642.86 C 3286.15,4642.86 3266.25,4638.26 3248.5,4629.07 C 3230.7,4619.88 3215.84,4607.79 3203.87,4592.79 C 3191.46,4577.15 3182.07,4559.57 3175.64,4540.03 C 3169.24,4520.48 3166.05,4500.57 3166.05,4480.3 C 3166.05,4457.69 3169.04,4436.24 3175.04,4415.96 C 3181.04,4395.68 3190.14,4377.93 3202.34,4362.72 C 3214.55,4347.5 3230.08,4335.46 3248.91,4326.59 C 3267.75,4317.73 3289.69,4313.3 3314.73,4313.3 C 3343.11,4313.3 3368.26,4320.73 3390.16,4335.6 C 3412.03,4350.46 3429.51,4370.45 3442.58,4395.52 L 3419.98,4409.23"
         style="fill:#ffffff;fill-opacity:1;fill-rule:nonzero;stroke:none"
         id="path57" /><path
         d="M 423.238,3451.18 C 423.238,3454.98 425.707,3465.86 427.699,3474.59 C 431.086,3489.42 434.91,3506.2 434.91,3519.46 C 434.91,3542.25 427.559,3589.05 414.262,3614.04 C 399.199,3642.2 364.781,3638.78 339.629,3636.27 C 332.309,3635.54 325.414,3634.86 319.633,3634.86 C 307.898,3634.86 306.758,3644.27 306.676,3647.16 C 306.973,3647.99 307.727,3649.57 308.383,3650.88 C 311.664,3657.53 316.617,3667.56 316.617,3682.87 C 316.617,3711.97 286.195,3741.61 256.363,3741.61 C 215.867,3741.61 194.297,3708.46 194.297,3684.53 C 194.297,3677.9 191.816,3663.8 189.996,3653.51 C 189.164,3648.83 188.395,3644.39 187.867,3640.84 C 187.422,3637.97 184.973,3631.41 183.012,3626.14 C 178.695,3614.55 174.23,3602.57 174.23,3591.24 C 174.23,3573.66 182.359,3553.73 195.996,3537.96 C 195.922,3538.04 195.883,3538.09 195.867,3538.12 C 197.262,3535.58 196.117,3525.66 195.512,3520.33 C 194.918,3515.16 194.297,3509.82 194.297,3504.44 C 194.297,3482.45 211.055,3449.18 236.289,3449.18 C 255.352,3449.18 273.621,3463.03 283.461,3474.89 C 286.781,3478.86 289.496,3483.8 292.652,3489.57 C 297.043,3497.55 306.16,3514.15 312.859,3514.15 C 314.254,3514.15 314.414,3513.96 314.711,3513.63 C 317.695,3510.06 318.613,3500.11 317.934,3496.26 C 316.953,3490.65 316.832,3481.24 316.656,3463.74 C 316.492,3446.55 316.285,3425.19 314.629,3414.23 C 312.93,3403.18 312.77,3389 312.594,3374 C 312.387,3356.6 312.172,3338.61 309.703,3324.63 C 304.285,3294.51 305.824,3223.35 309.863,3205 L 310.863,3200.57 C 311.77,3196.67 312.859,3191.29 313.23,3187.69 C 301.941,3177.13 301.078,3156.29 300.801,3128.5 C 300.707,3120.92 300.605,3110.61 300.023,3107.68 C 296.582,3095.5 295.191,3048.26 308.879,3031.5 C 311.023,3028.84 313.23,3023.46 311.43,3020.96 C 301.047,3006.52 299.77,2987.68 298.414,2967.73 L 297.68,2957.56 C 296.723,2945.25 298.699,2930.23 300.801,2914.34 C 302.949,2898.01 305.172,2881.12 304.34,2867.22 C 302.703,2836.91 299.371,2738.89 301.152,2686.66 C 302.848,2634.08 312.754,2559.55 318.344,2538.79 C 319.934,2532.92 318.621,2527.23 316,2516.86 C 314.078,2509.29 311.902,2500.74 311.133,2490.57 C 309.547,2468.3 312.457,2370.93 316.637,2352.75 C 317.461,2348.7 319.402,2327.09 319.363,2215.72 L 319.363,2212.18 C 319.363,2153.93 317.797,2134.93 316.422,2129.36 L 316.285,2129.04 C 297.926,2089.47 297.219,2055.4 296.582,2025.35 C 296.461,2019.35 296.332,2013.63 296.074,2008.07 C 294.781,1980.16 284.719,1903.88 280.93,1875.13 L 279.531,1864.48 C 279.547,1864.51 279.211,1861.98 279.211,1861.98 C 276.676,1842.01 274.332,1830.03 272.25,1826.2 C 272.25,1826.2 272.688,1826.98 273.711,1828.06 C 264.453,1818.73 262.988,1805.83 261.809,1795.46 C 261.543,1792.95 261.117,1789.39 260.727,1787.94 C 258.738,1784.17 248.844,1773.95 239.602,1773.95 C 234.527,1773.95 233.168,1775.38 232.703,1775.84 C 226.418,1782.41 227.328,1805.64 227.828,1818.18 C 228.004,1822.48 228.16,1826.59 228.16,1830.36 C 228.16,1849.91 222.426,1863.85 213.965,1872.91 C 240.277,1884.9 250.359,1932.3 251.492,1945.33 C 252.711,1959.47 247.926,1973.18 238.051,1983.94 C 227.418,1995.51 211.793,2002.42 196.254,2002.42 C 159.965,2002.42 129.297,1974.77 129.297,1942.07 C 129.297,1921.64 148.871,1897.18 169.84,1882.68 C 152.086,1875.73 137.555,1857.46 137.555,1838.74 C 137.555,1809.92 138.77,1789.67 144.801,1777.81 C 149.141,1769.07 152.438,1749.58 154.531,1735.7 C 159.508,1702.63 197.055,1668.34 251.277,1668.34 C 308.328,1668.34 318.621,1697.48 321.43,1719.43 C 321.996,1724.07 328.555,1733.66 333.812,1741.35 C 337.074,1746.14 340.461,1751.09 343.672,1756.37 C 354.234,1773.87 354.281,1799.4 353.418,1824.13 C 353.316,1827.34 353.227,1830.1 353.227,1832.03 C 353.227,1835.42 357.617,1845.28 360.23,1851.18 C 363.824,1859.3 367.527,1867.66 369.379,1875.98 C 371.703,1886.84 376.047,1900.64 380.242,1913.96 L 384.031,1926.12 C 387.141,1936.46 389.414,1967.23 394.246,2040.3 C 397.125,2083.79 400.098,2128.76 403.027,2154.8 C 409.906,2215.93 411.508,2483.75 408.051,2514.79 C 406.363,2530 407.066,2570.16 407.754,2609 C 408.34,2641.5 408.938,2675.12 408.164,2696.53 C 406.465,2742.39 409.82,2795.27 412.781,2810.13 C 416.965,2831.48 412.711,2974.71 411.48,2986.43 C 411.055,2990.71 410.191,2997.75 409.184,3005.89 C 406.785,3025.51 403.176,3055.17 403.176,3066 C 403.176,3073.29 404.355,3086.91 405.496,3100.09 C 406.816,3115.13 408.18,3130.68 408.18,3140.98 C 408.18,3148.26 410.137,3155.34 412.195,3162.79 C 414.391,3170.65 416.645,3178.76 416.645,3187.54 C 416.645,3198.68 413.031,3208.21 410.387,3215.17 C 409.656,3217.09 408.832,3219.36 408.422,3220.79 C 408.938,3222.43 410.152,3225.23 411.09,3227.3 C 414.262,3234.34 418.199,3243.11 418.199,3252.64 C 418.199,3261.11 415.16,3267.23 412.961,3271.69 C 410.598,3276.44 408.18,3281.36 408.18,3294.32 C 408.18,3308.34 416.941,3339.73 423.363,3362.66 C 430.012,3386.46 433.223,3398.26 433.223,3406.17 C 433.223,3416.01 430.203,3425.55 427.273,3434.77 C 425.391,3440.79 423.238,3447.58 423.238,3451.18"
         style="fill:#ffffff;fill-opacity:1;fill-rule:nonzero;stroke:none"
         id="path59" /><path
         d="M 1500.23,3134.24 L 1500.27,3134.1 C 1498.44,3139.81 1494.93,3171.3 1494.93,3203.44 C 1494.93,3245.98 1456.43,3271.39 1419.22,3271.39 C 1378.79,3271.39 1344.09,3212.07 1340.09,3199.96 C 1338.57,3195.36 1335.96,3189.1 1332.33,3180.46 C 1329.01,3172.55 1324.89,3162.7 1319.86,3149.94 C 1313.36,3133.55 1312.1,3120.64 1311.18,3111.18 C 1310.9,3108.24 1310.51,3104.34 1310.07,3102.98 C 1300.09,3092.18 1296.56,3077.31 1292.68,3060.1 C 1291.73,3055.91 1290.77,3051.59 1289.65,3047.11 C 1283.98,3024.56 1277.3,2983.1 1274.89,2963.07 C 1273.92,2954.65 1265.64,2942.58 1250.22,2927.05 C 1234.88,2911.73 1233.71,2893.55 1233.62,2882.15 C 1228.75,2873.24 1203.01,2848.73 1192.52,2840.83 C 1181.2,2832.41 1178.32,2819.8 1176.24,2810.6 C 1175.36,2806.73 1174.53,2803.06 1173.28,2800.34 C 1170.14,2793.48 1157.97,2780.13 1145,2769.3 C 1132.26,2758.75 1121.52,2741.98 1112.03,2727.19 L 1108.31,2721.39 C 1095.3,2701.26 1076.46,2675.17 1065.86,2665.33 C 1053.41,2653.96 1045.18,2634.57 1038.56,2618.98 C 1036.8,2614.86 1034.4,2609.19 1033.45,2607.64 C 1027.3,2599.25 1008.52,2573.5 999.184,2553.45 C 988.746,2530.6 979.148,2513.18 960.141,2512.91 C 957.219,2516.05 951.762,2528.37 954.512,2577.54 C 954.762,2581.86 954.941,2584.98 954.941,2587.42 C 954.941,2595.04 953.102,2604.65 950.797,2616.88 C 948.098,2631.16 944.727,2649 945.258,2661.56 C 945.754,2673.14 941.309,2736.55 928.203,2764.98 C 927.195,2767.19 925.996,2768.78 924.875,2770.64 C 925.84,2771.79 927.094,2772.94 927.961,2774.04 C 937.445,2786.32 939.277,2801.38 932.891,2814.36 C 926.387,2827.62 912.191,2836.19 896.723,2836.19 C 870.062,2836.19 850.273,2822.26 837.875,2794.73 C 832.777,2783.31 833.379,2770.21 838.773,2759.36 C 820.469,2726.7 810.078,2676.02 810.078,2663.54 C 810.078,2653.57 812.832,2644.98 816.992,2637.42 C 814.473,2637.17 812.043,2636.95 810.59,2636.95 C 795.5,2636.95 786.395,2625.59 780.387,2618.1 C 779.418,2616.89 778.164,2615.38 777.301,2614.41 C 767.031,2610.76 761.305,2602.43 758.168,2597.47 C 757.09,2595.75 755.875,2593.82 755.078,2593.04 C 735.535,2573.16 720.707,2566.19 713.887,2566.19 C 708.609,2566.19 704.719,2567.14 703.215,2568.75 C 699.16,2573.12 700.281,2587.78 700.902,2595.64 C 701.188,2599.3 701.453,2602.75 701.453,2605.93 C 701.453,2631.16 680.203,2646.2 669.977,2653.46 L 668.07,2654.84 C 664.996,2657.08 660.414,2662.25 657.605,2666.28 C 658.066,2666.61 658.453,2666.88 658.93,2667.26 C 660.891,2668.81 662.562,2670.4 664.184,2671.93 C 665.723,2673.37 668.277,2675.75 669.371,2676.29 C 669.371,2676.29 668.473,2675.85 666.973,2675.85 C 674.785,2675.85 682.102,2679.36 687.062,2685.41 C 695.172,2695.34 694.996,2709.32 694.133,2717.03 C 694.348,2717.51 694.488,2717.81 694.68,2718.22 C 698.434,2726.06 704.73,2739.15 704.73,2758.15 C 704.73,2796.26 681.449,2813.34 658.406,2813.34 C 630.719,2813.34 615.641,2792.27 608.395,2782.15 C 607.594,2781.02 606.859,2779.98 606.172,2779.08 C 597.004,2766.79 596.449,2746.89 596.676,2727.62 L 596.695,2724.36 C 596.52,2722.11 594.652,2714.88 586.91,2694.95 L 585.992,2692.57 C 580.805,2678.74 585.414,2657.57 590.703,2647.54 C 591.391,2646.25 592.168,2645.3 592.906,2644.26 C 594.16,2628.96 592.996,2578.73 592.59,2561.18 C 592.41,2553.44 592.289,2548.3 592.289,2545.94 C 592.289,2538.21 593.965,2530.12 595.57,2522.29 C 596.539,2517.54 597.754,2511.64 597.754,2508.96 C 597.754,2486.29 620.453,2464.46 625.004,2460.31 C 641.211,2445.39 674.504,2437.53 687.781,2437.53 C 703.953,2437.53 715.051,2442.83 727.871,2449.8 C 735.395,2453.85 741.781,2459.19 746.898,2463.48 C 749.418,2465.57 752.855,2468.44 754.199,2469.13 C 754.199,2469.13 753.773,2468.93 753.012,2468.71 C 761.391,2471.13 767.758,2475.29 774.477,2479.69 C 777.156,2481.43 779.91,2483.22 783.051,2485.09 C 796.926,2493.34 813.715,2511.21 822.035,2526.66 C 825.215,2532.44 826.75,2534.02 829.781,2537.12 C 831.422,2538.79 833.469,2540.89 835.883,2543.71 C 842.777,2551.72 844.84,2559.81 846.074,2564.65 C 846.094,2564.71 846.113,2564.76 846.113,2564.8 C 848.266,2566.96 851.859,2570.09 855.406,2573.15 C 856.48,2574.05 857.445,2575.03 858.523,2575.98 C 858.547,2570.48 858.383,2564.12 858.246,2559.06 C 858.086,2552.98 857.91,2546.67 857.91,2540.54 C 857.91,2519.04 861.809,2496.66 866.316,2470.74 L 869.125,2454.41 C 876.215,2411.97 919.172,2396.12 944.578,2396.12 C 966.152,2396.12 990.293,2412.73 1005.71,2428.25 C 1022.32,2444.97 1047.98,2477.05 1052.95,2483.34 C 1059.6,2491.59 1065.9,2501.56 1071.98,2511.21 C 1077.59,2520.12 1082.88,2528.52 1087.5,2533.98 C 1094.57,2542.31 1098.96,2551.22 1102.17,2557.73 C 1103.25,2559.91 1104.64,2562.67 1105.45,2563.93 C 1112.3,2568.51 1123.34,2576.58 1130.71,2593.46 C 1133.1,2598.82 1141.98,2611.22 1149.1,2621.18 C 1154.74,2629.09 1160.08,2636.53 1164.14,2643 C 1173.81,2658.24 1194.49,2684.41 1207.67,2696.57 C 1222.3,2710.14 1225.75,2720.1 1228.01,2729.13 C 1228.32,2730.27 1228.6,2731.39 1228.81,2731.86 C 1230.88,2735.82 1239.97,2746.24 1245.78,2750.68 C 1248.12,2749.06 1250.92,2746.82 1253.02,2745.05 C 1257.54,2741.25 1262.21,2737.29 1267.5,2734.61 L 1264.89,2736.2 C 1276.42,2727.99 1278.42,2717.63 1280.36,2701.57 C 1281.03,2696.07 1281.72,2690.4 1283.25,2685.06 C 1285.79,2676.09 1290.99,2640.25 1294.09,2618.84 C 1295.97,2605.97 1297.31,2596.65 1298.11,2592.38 C 1301.73,2573.1 1330.44,2524.64 1376.82,2524.64 C 1414.58,2524.64 1430.08,2547.94 1436.71,2557.87 C 1437.33,2558.82 1438.11,2559.96 1438.51,2560.52 C 1467.5,2584.38 1471.01,2599.02 1471.01,2607.99 C 1471.01,2633.2 1441.68,2644.86 1411.6,2645.64 C 1407.61,2649.97 1402.96,2663.35 1397.68,2686.07 C 1396.78,2689.94 1396.01,2693.31 1395.25,2696.05 C 1388.59,2719.8 1376.31,2770.76 1376.31,2781.05 C 1376.31,2790.03 1388.67,2820.75 1394.21,2827.44 C 1400.7,2834.75 1406.22,2847.31 1413.88,2865.69 C 1416.8,2872.71 1419.81,2879.97 1421.79,2883.57 C 1429.67,2898.03 1427.1,2915.12 1425.23,2927.61 C 1424.82,2930.34 1424.36,2933.52 1424.29,2935.13 C 1424.72,2936.69 1426.52,2940.29 1427.79,2942.75 C 1431.06,2949.17 1435.14,2957.17 1436.05,2966.32 C 1437.06,2976.31 1439.96,2985 1442.18,2988.1 C 1442.92,2989.14 1445.04,2991.43 1446.89,2993.45 C 1454.95,3002.19 1467.13,3015.42 1470.62,3032.98 C 1472.02,3039.94 1478.12,3048.83 1484.01,3057.39 C 1487.59,3062.59 1491.29,3067.97 1494.52,3073.65 C 1505.75,3093.59 1505.86,3119.29 1500.23,3134.24 z M 1418.09,3090.12 C 1412.59,3073.89 1403.98,3020.39 1399.61,3013.82 C 1395.27,3007.59 1387.61,2981.45 1387.61,2973.88 C 1387.61,2966.11 1381.2,2956.31 1369.13,2956.31 C 1357.14,2956.31 1351.64,2972.47 1352.73,2985.59 C 1353.83,2998.81 1367.02,3020.64 1367.02,3034.63 C 1367.02,3048.89 1367.02,3078.15 1371.39,3087.97 C 1375.73,3097.87 1389.02,3122.89 1407.5,3122.89 C 1422.56,3122.89 1423.56,3106.56 1418.09,3090.12"
         style="fill:#ffffff;fill-opacity:1;fill-rule:nonzero;stroke:none"
         id="path61" /><path
         d="M 1842.36,2641.05 C 1835.55,2641.05 1830.79,2639.84 1826.96,2638.89 C 1823.31,2638 1820.42,2637.27 1813.86,2637.27 C 1795.07,2637.27 1783.79,2623.56 1777.03,2615.38 C 1775.69,2613.75 1773.72,2611.35 1772.86,2610.61 C 1766.68,2608.45 1761.72,2604.98 1758.3,2601.88 C 1752.48,2596.57 1745.89,2590.57 1723.85,2590.57 C 1699.51,2590.57 1693.68,2601.24 1688.01,2611.56 C 1687.66,2612.21 1687.26,2612.78 1686.9,2613.42 C 1688.12,2614.9 1689.51,2616.53 1690.68,2617.84 L 1692.4,2619.82 C 1702.3,2631.16 1718.07,2662.51 1722.7,2673.05 C 1723.98,2676.02 1726.69,2679.06 1730.41,2683.32 C 1734.9,2688.41 1740.48,2694.73 1746.1,2703.81 C 1759.1,2724.82 1766.29,2770.9 1766.29,2794.73 C 1766.29,2848.69 1739.7,2856.75 1723.85,2856.75 C 1713.02,2856.75 1701.57,2854.34 1690.5,2852 C 1681.59,2850.14 1672.37,2848.22 1666.01,2848.22 L 1630.2,2848.22 C 1609,2848.22 1601.93,2828.03 1598.92,2819.41 C 1598.18,2817.3 1597.17,2814.43 1596.55,2813.35 C 1590.91,2803.47 1573.28,2769.35 1564.59,2747.87 C 1555.41,2725.77 1558.07,2698.44 1559.84,2680.35 C 1560.02,2678.65 1560.12,2677.23 1560.27,2675.7 C 1559.73,2675.27 1559.38,2674.97 1558.89,2674.61 C 1551.7,2669.18 1538.34,2659.12 1538.34,2637.95 C 1538.34,2609.43 1564.12,2598 1577.03,2593.16 C 1577.12,2589.24 1577.02,2584.13 1576.91,2579.57 C 1576.79,2574.59 1576.64,2568.96 1576.64,2562.86 C 1576.64,2522.34 1612.09,2462.36 1688.19,2462.36 C 1754.97,2462.36 1793.91,2492.22 1812.62,2506.58 C 1815.24,2508.57 1817.52,2510.33 1819.23,2511.52 C 1831.82,2520.23 1878.55,2562.25 1878.55,2591.29 C 1878.55,2620.6 1863.67,2641.05 1842.36,2641.05 z M 1657.29,2699.68 C 1644.95,2697.31 1632.74,2691.13 1630.2,2709.49 C 1627.73,2728 1630.2,2733 1640.08,2745.35 C 1649.89,2757.77 1661.03,2784.75 1678.17,2784.75 C 1690.52,2784.75 1689.28,2776.28 1689.28,2762.6 C 1689.28,2748.92 1669.64,2702.21 1657.29,2699.68"
         style="fill:#ffffff;fill-opacity:1;fill-rule:nonzero;stroke:none"
         id="path63" /><path
         d="M 2111.75,2585.66 C 2111.2,2589.1 2110.44,2593.77 2110.38,2595.14 C 2110.39,2635.71 2081.06,2690.94 2052.39,2739.52 C 2049.74,2744 2047.47,2747.85 2046.39,2749.84 C 2039.2,2763.2 2030.94,2790.35 2028.89,2803.93 C 2025.04,2827.88 2004.59,2853.12 1974.26,2853.12 C 1940.02,2853.12 1922.54,2804.44 1918.38,2791.11 C 1915.79,2787.4 1906.93,2779.32 1891.71,2766.93 L 1887.13,2763.14 C 1886.53,2762.68 1885.15,2761.72 1883.71,2760.71 C 1875.26,2754.89 1857.68,2742.78 1857.68,2718.12 C 1857.68,2683.78 1889.02,2668.34 1911.27,2668.34 C 1919.68,2668.34 1927.2,2671.89 1935.15,2675.62 C 1936.49,2676.26 1938.39,2677.11 1940.2,2677.89 C 1940.69,2675.8 1941.16,2673.59 1941.5,2672.03 C 1943.69,2661.52 1945.59,2652.46 1953.57,2646.5 C 1952.22,2647.52 1951.66,2648.24 1951.62,2648.27 C 1953.45,2645.91 1957.62,2636.86 1959.86,2632.01 C 1961.62,2628.18 1963.28,2624.59 1964.86,2621.48 C 1965.9,2619.38 1967.37,2616.05 1968.91,2612.49 C 1975.69,2596.85 1981.14,2585.23 1989.47,2578.19 C 1988.74,2578.8 1988.43,2579.24 1988.43,2579.24 C 1990.52,2576.29 1994.63,2562.6 1994.63,2544.43 C 1994.63,2531.04 1997.12,2510.38 1999.29,2492.17 C 2000.5,2482.09 2001.83,2470.9 2001.92,2467.09 C 2001.46,2464.43 1998.18,2457.36 1996.19,2453.07 C 1991.63,2443.27 1987.33,2434.02 1987.33,2424.79 C 1987.33,2408.22 1997.56,2377.29 2022.2,2377.29 C 2036.99,2377.29 2050.8,2384.84 2068.31,2397 C 2090.84,2412.7 2099.96,2445.54 2101.66,2460.7 C 2102.03,2463.94 2102.95,2468.44 2103.84,2472.82 C 2105.91,2482.91 2107.87,2492.44 2106.53,2500.69 C 2106.28,2505.34 2109.88,2527.25 2113.27,2538.59 C 2116.9,2550.57 2114.81,2566.32 2111.75,2585.66"
         style="fill:#ffffff;fill-opacity:1;fill-rule:nonzero;stroke:none"
         id="path65" /><path
         d="M 4203.11,4222.84 C 4197.46,4259.82 4084.75,4311.83 4058.01,4311.83 C 4033.67,4311.83 4012.99,4304.17 3994.77,4288.46 C 3991.8,4285.87 3981.88,4283.73 3974.65,4282.19 C 3966.31,4280.39 3957.7,4278.55 3949.77,4275.02 C 3932.52,4267.54 3907.19,4249.24 3895.29,4237.54 C 3885.23,4227.5 3854.32,4203.42 3838.3,4196.65 C 3832.01,4194.02 3812.75,4185.91 3756.62,4110.05 C 3751.43,4103.08 3737.81,4086.13 3725.82,4071.18 C 3715,4057.7 3704.8,4044.99 3700.04,4038.73 C 3691.91,4028.01 3680.1,4013.83 3660.64,3999.1 C 3637.34,3981.52 3626.82,3957.5 3623.67,3944.27 C 3621.31,3939.98 3609.12,3927.4 3601.82,3919.86 C 3596.39,3914.24 3590.78,3908.46 3586.04,3903.18 C 3576.76,3892.89 3570.51,3879.7 3565,3868.06 C 3561.19,3859.93 3556.39,3849.82 3552.79,3846.7 C 3535.21,3831.19 3521.82,3810.04 3516.88,3801.66 C 3510.18,3790.13 3496.99,3768.35 3488.87,3755.18 C 3484.39,3748.07 3473.03,3734.21 3463.89,3723.06 C 3457.81,3715.68 3452.09,3708.69 3448.11,3703.39 C 3443.77,3697.58 3440.12,3691.23 3436.25,3684.51 C 3430.55,3674.6 3424.69,3664.35 3417.5,3657.9 C 3407.11,3648.64 3396.11,3631.31 3381.72,3607.83 C 3376.89,3599.97 3370.31,3589.21 3368.11,3586.74 C 3361.64,3580.25 3357.93,3570.29 3353.65,3558.75 C 3350.41,3550.05 3345.96,3538.09 3341.66,3533.77 C 3322.01,3514.25 3306.89,3471.41 3306.76,3471 C 3304.84,3466.22 3292.6,3447.38 3284.47,3434.95 C 3275.92,3421.76 3267.81,3409.32 3263.22,3400.98 C 3253.95,3383.94 3222.77,3321.86 3216.99,3306.59 C 3210.04,3288.12 3193.95,3252.05 3188.69,3245.68 C 3183.44,3239.41 3178.81,3229.29 3171.7,3213.3 C 3167.23,3203.22 3158.89,3184.41 3154.9,3180.34 C 3145.41,3171 3138.32,3153.29 3126.6,3122.82 C 3120.45,3106.88 3113.52,3088.79 3105.86,3072.43 C 3085.76,3029.69 3070.57,2979.24 3063.24,2954.96 C 3063.16,2954.68 3062.66,2952.9 3062.66,2952.9 C 3058.44,2938.85 3045.66,2896.09 3037.93,2888.42 C 3019.84,2874 3008.79,2847.14 3020.62,2827.34 C 3022.15,2820.48 3017.64,2793.54 3012.09,2776.43 C 3011.13,2773.51 3010.04,2769.55 3008.75,2765 C 3008.42,2763.79 3007.81,2761.7 3007.3,2759.94 C 3006.5,2777.4 2993.91,2821.62 2985.98,2837.73 C 2984.06,2843.34 2989.1,2862.59 2991.27,2870.82 C 2992.75,2876.59 2994.18,2882.04 2995,2886.69 C 2996.74,2896.88 2994.69,2916.02 2989.9,2954.31 C 2987.79,2971.35 2985.39,2990.64 2985.39,2997.85 C 2985.39,3008.06 2983.79,3019.72 2982.07,3032.05 C 2980.2,3045.78 2978.05,3061.36 2978.05,3076.18 C 2978.05,3091.04 2977.42,3125.28 2976.82,3158.41 C 2976.19,3191.39 2975.59,3225.52 2975.59,3240.05 C 2975.59,3255.04 2976.23,3282.7 2976.89,3309.46 C 2977.48,3334.27 2978.05,3357.73 2978.05,3369.73 C 2978.05,3396.23 2981.11,3416.08 2983.98,3423.34 C 2990.29,3439.28 2993.05,3467.87 2989.96,3485.74 C 2987.95,3497.69 2987.99,3538.81 2988.01,3554.28 L 2988.01,3558.09 C 2988.01,3586.6 2978.16,3619.89 2950.53,3619.89 C 2938.4,3619.89 2926.95,3612.65 2915.9,3605.63 C 2912.89,3603.73 2910.06,3601.93 2907.36,3600.37 C 2891.46,3591.17 2886.88,3568.3 2881.54,3541.81 C 2879.77,3533.08 2878.12,3524.84 2876.25,3518.38 C 2868.5,3491.37 2870.12,3458.02 2880.41,3433.41 C 2884.2,3424.23 2883.07,3408.66 2881.89,3392.18 C 2881.25,3382.75 2880.55,3373.02 2880.55,3362.73 L 2880.55,3254.38 C 2880.55,3227.94 2881.84,3146 2887.66,3117.06 C 2890.78,3101.62 2890.08,3076.98 2889.39,3053.15 C 2889.1,3042.55 2888.79,3031.56 2888.79,3021.02 C 2888.79,2986.73 2896.37,2936.69 2900,2912.62 L 2900.72,2907.88 C 2902.11,2898.81 2900,2887.96 2897.75,2876.46 C 2895.8,2866.53 2893.79,2856.29 2893.79,2845.85 C 2893.79,2832.61 2898.79,2819.17 2903.59,2806.17 C 2906.76,2797.64 2911.07,2785.97 2910.62,2781.07 C 2909.12,2765.06 2912.54,2747.47 2915.84,2730.47 C 2917.03,2724.23 2918.18,2718.34 2919.08,2712.63 C 2920.62,2702.34 2926.78,2645.12 2932.7,2589.77 C 2938.71,2533.65 2944.94,2475.61 2947.44,2456.44 C 2950.47,2433.29 2950.27,2401.11 2950.14,2379.81 C 2950,2361.12 2950.04,2355.52 2951.17,2350.91 L 2952.32,2346.2 L 2955.49,2342.52 C 2969.32,2326.46 2984.77,2323.1 2995.31,2323.14 C 3015.04,2323.19 3031.99,2334.88 3041.29,2345.81 C 3050.06,2356.15 3054.47,2377.61 3059.84,2539.63 C 3060.31,2554.68 3060.74,2566.55 3061.05,2572.99 C 3061.88,2588.39 3065.41,2615.33 3068.85,2641.36 C 3072.73,2671.02 3076.11,2696.65 3076.11,2709.1 C 3076.11,2724.43 3079.04,2739.91 3084.8,2755.18 C 3085.68,2757.51 3086.89,2760.61 3088.32,2764.17 C 3098.07,2788.94 3106.15,2810.53 3106.15,2824.14 C 3106.15,2831.52 3114.65,2848.22 3122.87,2864.36 L 3125.7,2869.92 C 3139.16,2896.86 3155.92,2959.3 3159.1,2977.41 L 3160.21,2983.79 C 3162.71,2998.39 3166.13,3018.4 3171.45,3026.94 C 3178.07,3037.57 3178.57,3047.34 3178.61,3053.25 C 3190.23,3063.31 3197.93,3079.49 3197.93,3090.96 C 3197.93,3088.89 3197.46,3087.64 3197.4,3087.58 C 3197.83,3088.59 3199.53,3091.46 3200.76,3093.59 C 3204.38,3099.7 3209.34,3108.07 3213.32,3119.19 C 3216.76,3128.98 3224.79,3140.57 3232.54,3151.79 C 3236.89,3158.05 3241.37,3164.5 3245.08,3170.72 C 3256.46,3189.6 3260.27,3201.45 3263.77,3213.88 C 3264.67,3217.17 3269.1,3224.88 3272.66,3231.06 C 3278.12,3240.56 3284.32,3251.37 3288.3,3262.38 C 3293.96,3278.31 3302.58,3290.68 3307.01,3295.11 C 3313.52,3301.55 3320.53,3315.83 3333.75,3345.34 C 3335.98,3350.38 3337.91,3354.68 3339,3356.98 C 3339.53,3357.54 3341.5,3358.88 3342.99,3359.88 C 3348.09,3363.36 3355.8,3368.61 3363.69,3378.77 C 3375.49,3393.8 3379.18,3411.23 3381.89,3423.99 C 3382.58,3427.13 3383.2,3430.09 3383.81,3432.19 C 3385.18,3436.23 3393.89,3447.69 3398.55,3453.85 C 3403.77,3460.68 3408.67,3467.1 3411.86,3472.66 C 3416.6,3481.07 3424.39,3487.64 3431.95,3493.66 C 3438.95,3499.18 3446.04,3509.28 3456.84,3525.27 C 3461.17,3531.67 3465.66,3538.3 3468.28,3541.42 C 3480.84,3556.32 3482.83,3574.56 3482.97,3589.29 C 3485.33,3593.48 3496.07,3600.39 3500.64,3601.17 C 3521.46,3604.29 3536.74,3626.33 3539.08,3642.15 C 3540.43,3644.43 3545.31,3649.95 3552.17,3655.5 C 3561.7,3663.28 3574.24,3677.11 3580.96,3690.56 C 3585.14,3698.89 3586.64,3708.76 3587.97,3717.45 C 3588.34,3719.94 3588.87,3723.1 3589.3,3725.04 C 3589.59,3725.28 3589.8,3725.46 3590.06,3725.69 C 3593.2,3728.27 3599.53,3733.82 3601.91,3742.85 C 3605.53,3751.26 3612.58,3767.09 3624.51,3777.75 C 3624.43,3777.66 3637.13,3788.95 3637.13,3788.95 C 3649.02,3799.54 3662.46,3811.55 3671.62,3818.48 C 3682.5,3826.58 3687.95,3837.22 3692.34,3845.75 C 3695.04,3851.02 3697.34,3855.57 3700.41,3858.59 C 3713.79,3871.72 3726.09,3896.62 3724.38,3915.48 C 3724.86,3916.52 3727.44,3920.1 3734.08,3924.55 C 3734.18,3924.59 3736.45,3926.09 3736.45,3926.09 C 3747.46,3933.42 3765.9,3945.64 3815.02,3991.57 C 3869.88,4043.05 3916.33,4078.15 3946.48,4100.07 C 3946.52,4100.1 3955.59,4106.79 3955.59,4106.79 C 3984.24,4128.05 3992.89,4134.45 4038.05,4134.45 C 4076.13,4134.45 4080.74,4123.66 4087.11,4108.72 C 4087.89,4106.86 4088.71,4104.94 4089.61,4102.99 C 4103.16,4073.64 4142.87,4070.7 4174.06,4080.39 C 4220.06,4094.76 4203.3,4221.57 4203.11,4222.84"
         style="fill:#ffffff;fill-opacity:1;fill-rule:nonzero;stroke:none"
         id="path67" /><path
         d="M 3538.79,2617.48 C 3531.93,2626.99 3520.94,2632.7 3509.41,2632.7 C 3492.93,2632.7 3477.97,2620.46 3467.05,2611.54 L 3464.98,2609.86 C 3456.04,2602.66 3429.3,2576.15 3419.59,2562.54 C 3409.1,2548.01 3376.45,2516.05 3347.68,2516.05 C 3331.17,2516.05 3319.16,2520.57 3310.98,2529.92 C 3301.43,2540.88 3298.61,2556.58 3297.89,2567.71 C 3337.25,2583.28 3353.95,2614.26 3372.75,2649.6 L 3377.15,2657.83 C 3403.98,2707.69 3418.01,2825.18 3418.01,2874.15 C 3418.01,2923.15 3390.59,2951.24 3342.73,2951.24 C 3268.16,2951.24 3237.03,2865.93 3222.09,2824.92 C 3220.2,2819.73 3218.55,2815.27 3217.13,2811.67 C 3201.64,2772.99 3190.02,2659.51 3188.98,2645.6 C 3187.17,2620.14 3192.54,2558.44 3194.08,2544.97 C 3195.02,2536.86 3197.66,2526.75 3201.02,2513.95 C 3204.2,2501.73 3207.83,2487.86 3211.07,2471.8 C 3221,2422.71 3296.05,2401.91 3324.26,2401.91 C 3354.55,2401.91 3388.54,2416.48 3434.45,2449.11 C 3478.28,2480.34 3537.09,2561.62 3543.57,2580.97 C 3547.89,2594.04 3546.15,2607.32 3538.79,2617.48 z M 3273.2,2671.98 C 3273.36,2679.1 3275.64,2690.62 3276.95,2696.96 C 3277.83,2701.25 3278.65,2705.29 3279.3,2709.22 C 3280.88,2719.41 3285.8,2735.61 3290.12,2749.9 C 3295.21,2766.66 3298.36,2777.32 3299.3,2785.02 C 3299.32,2785.18 3304.3,2817.3 3323.73,2822.79 C 3323.96,2819.66 3323.91,2815.47 3322.79,2809.53 C 3321.8,2804.12 3320.25,2794.71 3318.48,2783.83 C 3315.16,2763.34 3308.22,2720.76 3305.29,2712.99 C 3300.1,2698.83 3284.38,2676.75 3273.2,2671.98"
         style="fill:#ffffff;fill-opacity:1;fill-rule:nonzero;stroke:none"
         id="path69" /><path
         d="M 3873.34,2691.84 C 3866.72,2704.07 3854.39,2711.09 3839.55,2711.09 C 3815.04,2711.09 3796.19,2689.6 3786.52,2650.59 C 3785.2,2645.32 3780.16,2637.66 3774.51,2637.66 C 3773.32,2637.66 3770.45,2640.51 3767.4,2651.26 C 3766.52,2658.11 3770.37,2696.26 3772.68,2719.04 C 3774.26,2734.86 3775.78,2749.8 3776.39,2759.69 C 3778.12,2788.69 3770.18,2862.87 3759.32,2884.89 C 3749.94,2903.91 3723.4,2911.56 3668.14,2911.21 C 3666.37,2912.44 3663.85,2914.39 3661.86,2915.98 C 3651.43,2924.26 3638.44,2934.57 3622.77,2934.57 C 3578.54,2934.57 3557.66,2891.69 3552.29,2878.5 C 3545.49,2861.64 3549.41,2847.06 3552.56,2835.35 C 3554.02,2829.86 3555.43,2824.66 3555.88,2819.19 C 3557.83,2796.39 3574.04,2753.8 3604.43,2753.8 C 3624.04,2753.8 3644.67,2767.34 3661.05,2790.93 C 3661.07,2790.93 3661.07,2790.93 3661.11,2790.96 C 3661.78,2790.61 3662.66,2789.91 3663.81,2789.03 C 3668.16,2764.91 3665.78,2657.46 3664.82,2615.8 C 3664.45,2599.8 3664.18,2587.13 3664.18,2580.75 C 3664.18,2541.09 3703.98,2508.82 3752.91,2508.82 C 3799.34,2508.82 3846.04,2569.96 3852.7,2601.78 C 3856.91,2621.3 3865.43,2638.85 3871.41,2647.93 C 3879.71,2660.64 3880.47,2678.66 3873.34,2691.84"
         style="fill:#ffffff;fill-opacity:1;fill-rule:nonzero;stroke:none"
         id="path71" /><path
         d="M 4329.2,2521.02 C 4331.76,2542.73 4312.11,2558.88 4297.73,2570.68 C 4294.86,2573.03 4291.05,2576.22 4289.32,2578.02 C 4286.8,2584.98 4286.02,2608.55 4285.7,2618.92 C 4285.43,2627.18 4285.23,2633.71 4284.67,2638.44 C 4283.77,2645.45 4283.48,2679.41 4283.77,2739.55 L 4283.83,2750.64 L 4283.69,2766.93 C 4283.48,2784.84 4283.16,2814.8 4283.77,2824.8 C 4284.73,2838.55 4279.49,2853 4269.8,2863.37 C 4261.56,2872.18 4251,2877.02 4240,2877.02 C 4219.08,2877.02 4194.63,2859.6 4184,2843.44 C 4177.87,2834.14 4174.1,2819.63 4168.67,2796.85 C 4166.5,2787.89 4164.47,2779.44 4162.46,2772.94 C 4157.3,2757.96 4093.96,2672.64 4084.3,2661.63 C 4082.95,2660.39 4079.63,2657.78 4076.04,2655.14 C 4073.85,2658.67 4071.54,2662.17 4069.16,2665.59 C 4066.64,2669.18 4064.06,2672.9 4061.97,2676.39 C 4059.49,2680.57 4059.12,2687.38 4058.63,2696.05 C 4058.28,2702.99 4057.83,2710.85 4056.19,2719.64 C 4054.96,2726.16 4053.83,2733.76 4052.73,2741.09 C 4050.23,2757.85 4048.09,2772.36 4043.98,2781.53 C 4042.25,2787.64 4042.32,2818.01 4043.79,2838.11 C 4044.41,2847.43 4044.1,2854.71 4043.75,2862.43 C 4043.52,2867.48 4043.28,2872.69 4043.28,2879.07 C 4043.28,2917.77 3991.5,2917.77 3974.49,2917.77 C 3949.67,2917.77 3935.96,2899.75 3927.79,2889 C 3925.59,2886.11 3923.52,2883.4 3921.89,2881.78 C 3919.69,2879.56 3916.48,2876.84 3913.12,2873.96 C 3899.75,2862.56 3885.94,2850.76 3885.94,2834.2 C 3885.94,2808.39 3907.7,2790.5 3919.14,2782.22 C 3920.37,2777.55 3921.58,2768.18 3922.27,2762.64 C 3923.05,2756.68 3923.71,2751.09 3924.67,2746.52 C 3927.46,2733.27 3943.85,2664.13 3947.77,2649.12 C 3948.85,2644.53 3949.94,2626.17 3948.95,2565.51 L 3948.79,2555.11 C 3948.79,2547.94 3951.17,2531.94 3956.52,2498.84 C 3958.05,2489.36 3959.36,2481.18 3959.92,2477.08 C 3962.95,2455.39 3980.47,2433.1 4004.55,2433.1 C 4023.14,2433.1 4048.03,2447.34 4057.83,2460.07 C 4067.54,2472.92 4072.52,2501.15 4074.63,2516.89 C 4075.72,2525.02 4075,2532.34 4074.39,2538.22 C 4073.75,2544.75 4073.44,2548.61 4074.63,2552.07 C 4077.77,2561.01 4088.12,2577.07 4093.11,2584.81 L 4094.84,2587.52 C 4097.38,2589.22 4103.85,2592.17 4108.44,2594.26 C 4120.06,2599.49 4132.05,2604.92 4139.67,2612.53 C 4145.16,2618.03 4155.7,2637.75 4166.84,2660.47 C 4167.66,2634.73 4169.12,2609.59 4171.43,2601.52 C 4173.52,2591.85 4175.31,2526.54 4176.09,2498.64 C 4176.43,2486.23 4176.68,2477.27 4176.89,2473.23 C 4178.26,2448.16 4208.14,2402.09 4247.13,2402.09 C 4286.33,2402.09 4300.37,2450.62 4301.74,2471.7 C 4302.97,2474.07 4306.68,2479.07 4309.3,2482.63 C 4317.87,2494.17 4327.54,2507.23 4329.2,2521.02"
         style="fill:#ffffff;fill-opacity:1;fill-rule:nonzero;stroke:none"
         id="path73" /><path
         d="M 4665.45,2813.09 C 4665.39,2813.01 4665.31,2812.91 4665.23,2812.81 L 4665.2,2812.77 C 4665.2,2812.77 4665.31,2812.89 4665.45,2813.09"
         style="fill:#ffffff;fill-opacity:1;fill-rule:nonzero;stroke:none"
         id="path75" /><path
         d="M 4857.32,1679.41 L 4857.25,1706.18 C 4857.25,1786.43 4771.84,1916.97 4754.38,1937.49 C 4745.62,1947.82 4740.59,1963.48 4736.52,1976.05 C 4735.16,1980.23 4733.89,1984.23 4732.54,1987.89 C 4724.75,2008.45 4689.24,2044.47 4682.21,2051.48 C 4680.12,2053.57 4673.93,2062.03 4663.55,2092.69 C 4658.89,2106.89 4647.46,2134.4 4640.51,2148.02 C 4635.33,2158.31 4610.86,2228.98 4601.97,2257.6 C 4593.63,2284.49 4590.7,2296.62 4589.98,2307.45 C 4588.5,2331.72 4586.17,2355.96 4579.39,2371.44 C 4573.46,2384.77 4556.46,2442.89 4556.46,2502.49 C 4556.46,2556.5 4576.07,2593.7 4585.53,2611.56 L 4587.79,2615.86 C 4591.7,2623.41 4605.08,2628.61 4615.8,2632.81 C 4619.04,2634.08 4622.15,2635.27 4625.1,2636.56 C 4642.93,2644.49 4664.22,2668.54 4670.82,2683.73 C 4671.95,2684.86 4675.96,2687.43 4678.93,2689.39 C 4684.36,2692.92 4691.13,2697.34 4698.24,2703.23 C 4712.44,2714.86 4724.75,2739.4 4739.38,2770.25 C 4742.48,2776.78 4745.37,2782.95 4747.77,2787.54 C 4750.45,2792.75 4757.15,2802.57 4764.22,2812.94 C 4790.18,2850.88 4809.98,2881.84 4809.98,2905.9 C 4809.98,2951.12 4723.09,2991.67 4697.05,2991.67 C 4617.48,2991.67 4569.02,2908.19 4550.82,2876.79 L 4547.85,2871.72 C 4537.52,2854.24 4522.83,2809.88 4507.44,2762.06 C 4503.5,2749.84 4500.1,2739.28 4498.05,2733.63 C 4489.04,2708.67 4486.04,2677.84 4486,2666.41 C 4485.72,2664.99 4483.81,2660.85 4482.4,2657.83 C 4479.59,2651.8 4476.13,2644.31 4473.18,2634.48 C 4466.43,2612.34 4454.22,2489.98 4454.22,2408.81 C 4454.22,2346.66 4469.77,2267.27 4481.13,2209.28 C 4485.21,2188.4 4488.75,2170.36 4490.66,2157.71 C 4498.98,2102.45 4532.97,2052.93 4539.71,2043.59 C 4546.58,2033.88 4552.87,2017.99 4554.28,2006.58 C 4556.05,1991.67 4567.52,1978.02 4582.29,1961.78 C 4584.96,1958.84 4588.67,1954.77 4589.63,1953.4 C 4589.2,1954.1 4591.99,1948.59 4591.99,1948.59 C 4604.3,1924.3 4616.74,1900.34 4624.47,1889.77 C 4629.34,1882.99 4646.35,1855.02 4660.02,1832.53 C 4670.43,1815.45 4679.38,1800.74 4683.05,1795.17 C 4686.84,1789.39 4687.87,1785.23 4689.36,1779.44 C 4690.21,1776.27 4691.13,1772.63 4692.54,1768.65 C 4694.2,1763.98 4697.01,1758.35 4700.31,1751.86 C 4703.4,1745.59 4709.96,1732.56 4710.49,1728.3 C 4711.31,1717.64 4717.71,1706.25 4725.88,1691.85 C 4731.27,1682.23 4737.4,1671.35 4740.68,1662.25 C 4746.46,1646.09 4749.49,1576.93 4749.49,1544.36 C 4749.49,1529.88 4746.68,1507.9 4744.8,1493.37 L 4743.44,1482.51 C 4741.78,1469.32 4732.95,1436.19 4728.95,1428.18 C 4724.04,1418.27 4718.22,1395.84 4710.49,1365.25 L 4706.5,1349.61 C 4701.43,1330.18 4682.95,1278.25 4675.08,1261.42 C 4675.12,1261.46 4666.37,1243.11 4666.37,1243.11 C 4657.56,1224.72 4647.54,1203.91 4642.85,1192.27 C 4635.82,1175.3 4626.45,1144.76 4624.26,1128.27 C 4623.48,1122.14 4620.59,1110.36 4611.17,1088.21 C 4607.23,1078.77 4600.98,1062.75 4598.16,1053.33 C 4596.25,1050.97 4590.12,1046.02 4586.7,1043.25 C 4583.63,1040.82 4580.8,1038.48 4578.2,1036.19 C 4562.38,1022.34 4552.4,978.379 4551.99,976.562 C 4550.25,969.031 4531.91,929.363 4520.35,908.137 C 4512.23,893.535 4493.3,863.762 4484.2,849.512 L 4480,842.883 C 4473.81,833.293 4471.39,819.355 4468.67,800.77 C 4467.91,795.508 4467.17,790.547 4466.46,787.578 C 4464.77,780.566 4456.84,762.988 4453.03,754.57 C 4451.33,750.82 4450.1,748.066 4449.32,746.238 C 4449.02,745.781 4446.78,743.367 4445.16,741.641 C 4442.71,739.016 4439.65,735.73 4436.5,731.711 C 4428.18,720.906 4426.6,707.129 4425.33,696.055 C 4425.04,693.398 4424.79,690.891 4424.41,688.75 C 4422.71,681.418 4404.94,648.113 4396.09,635.77 C 4386.04,621.816 4369.65,586.809 4367.29,571.57 C 4366.04,565.73 4356.02,545.188 4337.52,510.84 C 4330.14,497.234 4326.84,484.309 4323.63,471.875 C 4321.13,462.043 4318.75,452.715 4314.39,443.762 C 4310.33,435.293 4305.14,423.113 4299.12,409.055 C 4288.98,385.215 4276.33,355.586 4267.03,339.641 C 4252.52,314.609 4230.8,258.73 4219.14,227.656 C 4219.1,227.629 4205.41,189.602 4205.41,189.602 C 4191,149.336 4169.22,88.457 4161.09,68.125 C 4155.08,52.9688 4145.23,32.1289 4136.56,13.75 C 4135.7,11.9727 4134.98,10.4297 4134.18,8.69922 L 4273.71,8.69922 C 4275.84,14.6289 4277.34,20.4492 4278.42,26.1133 L 4279,29.3086 C 4280.33,35.2734 4292.29,68.2031 4301,92.2578 C 4308.42,112.676 4315.39,131.926 4319.12,143.184 C 4327.99,169.773 4354.22,230.098 4363.26,247.402 C 4366.7,253.867 4370.76,262.539 4375.04,271.672 C 4383.14,289.004 4393.26,310.574 4400.43,319.895 C 4414.12,337.598 4416.09,362.773 4417.29,377.844 C 4417.58,380.906 4417.79,383.879 4418.03,385.352 C 4418.91,389.512 4426.13,405.566 4430.92,416.184 C 4436.05,427.645 4441.41,439.52 4444.45,448.145 C 4448.55,459.98 4458.77,482.344 4467.75,502.051 L 4479.3,527.668 C 4489.41,550.879 4502.79,592.109 4506.66,606.77 C 4509.9,619.055 4526.76,667.793 4533.22,683.516 C 4536.58,691.504 4543.89,711.387 4551.6,732.422 C 4558.87,752.09 4566.43,772.48 4569.45,779.785 C 4575.86,795.344 4583.34,818.613 4584.53,833.145 C 4585.04,835.645 4589.47,843.367 4592.09,847.969 C 4595.84,854.363 4599.65,861.086 4601.82,867.488 C 4605.84,879.238 4609.67,888.906 4612.09,893.312 C 4619.36,905.945 4626.23,919.348 4627.11,932.109 C 4627.81,933.625 4630.61,937.227 4632.71,939.902 C 4637.7,946.328 4643.95,954.297 4649.08,964.98 C 4653.26,973.809 4657.42,985.535 4662.21,999.16 C 4668.54,1017.04 4675.68,1037.29 4682.99,1050.37 C 4697.44,1076.41 4719.55,1133.75 4727.42,1159.75 C 4733.11,1178.68 4743.57,1213.81 4750.04,1223.01 C 4760.41,1237.83 4796.74,1335.04 4798.91,1350.77 C 4799.45,1354.62 4803.36,1365.76 4806.52,1374.68 C 4811.82,1389.77 4817.85,1406.86 4820.64,1421.81 C 4825.51,1448.47 4833.48,1470.94 4843.01,1485.14 C 4855.74,1504.05 4857.64,1557.87 4857.32,1679.41"
         style="fill:#ffffff;fill-opacity:1;fill-rule:nonzero;stroke:none"
         id="path77" /><path
         d="M 4591.95,2747.92 C 4591.99,2748.05 4592.09,2748.24 4592.13,2748.36 C 4592.09,2748.48 4592.03,2748.55 4592.03,2748.67 C 4592.03,2748.19 4591.95,2747.92 4591.95,2747.92"
         style="fill:#ffffff;fill-opacity:1;fill-rule:nonzero;stroke:none"
         id="path79" /><path
         d="M 4604,2770.9 C 4611.25,2782.95 4617.48,2793.34 4618.96,2803.15 C 4620.59,2814.28 4622.77,2829.52 4630.45,2841.42 C 4635.2,2848.67 4639.92,2858.72 4644.51,2868.45 C 4648.11,2876.05 4653.54,2887.52 4655.94,2890.34 C 4655.9,2890.34 4660.62,2892.77 4665.31,2896.54 C 4668.54,2899.18 4674.63,2903.98 4678.32,2905.23 C 4684.65,2901.56 4694.73,2888.55 4694.9,2883.23 C 4694.9,2872.94 4683.03,2849.18 4678.18,2842.69 C 4673.71,2836.57 4671.31,2829.46 4669.02,2822.6 C 4667.99,2819.51 4666.23,2814.35 4665.23,2812.81 C 4663.34,2810.68 4661.5,2808.63 4659.51,2806.44 C 4654.98,2801.44 4650.29,2796.26 4645.61,2790.18 C 4642.66,2786.38 4639.98,2781.39 4636.82,2775.64 C 4633.36,2769.27 4625.25,2754.32 4620.51,2751.56 C 4608.95,2744.88 4600.14,2742.44 4595.14,2742.05 C 4593.93,2743.12 4592.27,2745.39 4592.13,2748.36 C 4593.09,2752.79 4599.84,2764.04 4604,2770.9"
         style="fill:#1a5dad;fill-opacity:1;fill-rule:nonzero;stroke:none"
         id="path81" /></g></g></svg>